<svg xmlns="http://www.w3.org/2000/svg" width="1280" height="936" viewBox="0 0 1280 936">
<defs>
<marker id="arrow" viewBox="0 0 10 10" refX="9" refY="5" markerWidth="8" markerHeight="8" orient="auto-start-reverse"><path d="M 0 0 L 10 5 L 0 10 z" fill="#2C6A93"/></marker>
<filter id="softShadow" x="-20%" y="-20%" width="140%" height="140%"><feDropShadow dx="0" dy="2" stdDeviation="2" flood-color="#CBD5E1" flood-opacity="0.32"/></filter>
</defs>
<rect width="100%" height="100%" fill="#FFFFFF"/>
<rect x="10.0" y="10.0" width="1260.0" height="916.0" rx="18" fill="none" stroke="#D8E1EA" stroke-width="1.0" />
<rect x="260.0" y="18.0" width="760.0" height="58.0" rx="28" fill="#FFFFFF" stroke="#F7E0E8" stroke-width="2.2" filter="url(#softShadow)"/>
<text x="640.0" y="52.0" text-anchor="middle" font-size="25" font-family="Arial, Helvetica, sans-serif" font-weight="700" fill="#162033" >PV Module Degradation Assessment Technical Route</text>
<text x="640.0" y="92.0" text-anchor="middle" font-size="12" font-family="Arial, Helvetica, sans-serif" font-weight="400" fill="#5B6472" >Thesis proposal route generated by tech-route-maker</text>
<rect x="228.0" y="146.0" width="980.0" height="126.0" rx="18" fill="#D9F2F2" stroke="#6FAEC3" stroke-width="1.4" stroke-dasharray="6 6" opacity="0.70"/>
<rect x="62.0" y="181.0" width="128.0" height="56.0" rx="12" fill="#7BCFD0" stroke="#7BCFD0" stroke-width="1.0" filter="url(#softShadow)"/>
<text x="126.0" y="204.9" text-anchor="middle" font-size="14" font-family="Arial, Helvetica, sans-serif" font-weight="700" fill="#122033" >Researc</text>
<text x="126.0" y="221.9" text-anchor="middle" font-size="14" font-family="Arial, Helvetica, sans-serif" font-weight="700" fill="#122033" >h...</text>
<rect x="228.0" y="296.0" width="980.0" height="126.0" rx="18" fill="#F7E0E8" stroke="#6FAEC3" stroke-width="1.4" stroke-dasharray="6 6" opacity="0.70"/>
<rect x="62.0" y="331.0" width="128.0" height="56.0" rx="12" fill="#7BCFD0" stroke="#7BCFD0" stroke-width="1.0" filter="url(#softShadow)"/>
<text x="126.0" y="354.9" text-anchor="middle" font-size="14" font-family="Arial, Helvetica, sans-serif" font-weight="700" fill="#122033" >Researc</text>
<text x="126.0" y="371.9" text-anchor="middle" font-size="14" font-family="Arial, Helvetica, sans-serif" font-weight="700" fill="#122033" >h...</text>
<rect x="228.0" y="446.0" width="980.0" height="126.0" rx="18" fill="#FFF1C7" stroke="#6FAEC3" stroke-width="1.4" stroke-dasharray="6 6" opacity="0.70"/>
<rect x="62.0" y="481.0" width="128.0" height="56.0" rx="12" fill="#7BCFD0" stroke="#7BCFD0" stroke-width="1.0" filter="url(#softShadow)"/>
<text x="126.0" y="504.9" text-anchor="middle" font-size="14" font-family="Arial, Helvetica, sans-serif" font-weight="700" fill="#122033" >Key</text>
<text x="126.0" y="521.9" text-anchor="middle" font-size="14" font-family="Arial, Helvetica, sans-serif" font-weight="700" fill="#122033" >Techno...</text>
<rect x="228.0" y="596.0" width="980.0" height="126.0" rx="18" fill="#DDECF9" stroke="#6FAEC3" stroke-width="1.4" stroke-dasharray="6 6" opacity="0.70"/>
<rect x="62.0" y="631.0" width="128.0" height="56.0" rx="12" fill="#7BCFD0" stroke="#7BCFD0" stroke-width="1.0" filter="url(#softShadow)"/>
<text x="126.0" y="654.9" text-anchor="middle" font-size="14" font-family="Arial, Helvetica, sans-serif" font-weight="700" fill="#122033" >Experim</text>
<text x="126.0" y="671.9" text-anchor="middle" font-size="14" font-family="Arial, Helvetica, sans-serif" font-weight="700" fill="#122033" >ental...</text>
<rect x="228.0" y="746.0" width="980.0" height="126.0" rx="18" fill="#E6F4D7" stroke="#6FAEC3" stroke-width="1.4" stroke-dasharray="6 6" opacity="0.70"/>
<rect x="62.0" y="781.0" width="128.0" height="56.0" rx="12" fill="#7BCFD0" stroke="#7BCFD0" stroke-width="1.0" filter="url(#softShadow)"/>
<text x="126.0" y="804.9" text-anchor="middle" font-size="14" font-family="Arial, Helvetica, sans-serif" font-weight="700" fill="#122033" >Expecte</text>
<text x="126.0" y="821.9" text-anchor="middle" font-size="14" font-family="Arial, Helvetica, sans-serif" font-weight="700" fill="#122033" >d...</text>
<path d="M 710.0 208.0 C 718.0 208.0, 718.0 208.0, 726.0 208.0" fill="none" stroke="#2C6A93" stroke-width="2.1" marker-end="url(#arrow)" opacity="0.72"/>
<rect x="687.0" y="188.0" width="62.0" height="19.0" rx="9" fill="#FFFFFF" stroke="#E7ECF2" stroke-width="0.8" />
<text x="718.0" y="202.0" text-anchor="middle" font-size="9" font-family="Arial, Helvetica, sans-serif" font-weight="600" fill="#5B6472" >scopes</text>
<path d="M 949.0 238.0 C 949.0 283.0, 410.0 283.0, 410.0 328.0" fill="none" stroke="#2C6A93" stroke-width="2.1" marker-end="url(#arrow)" opacity="0.72" stroke-dasharray="6 5"/>
<rect x="648.5" y="263.0" width="62.0" height="19.0" rx="9" fill="#FFFFFF" stroke="#E7ECF2" stroke-width="0.8" />
<text x="679.5" y="277.0" text-anchor="middle" font-size="9" font-family="Arial, Helvetica, sans-serif" font-weight="600" fill="#5B6472" >requires...</text>
<path d="M 556.0 358.0 C 564.0 358.0, 564.0 358.0, 572.0 358.0" fill="none" stroke="#2C6A93" stroke-width="2.1" marker-end="url(#arrow)" opacity="0.72"/>
<rect x="533.0" y="338.0" width="62.0" height="19.0" rx="9" fill="#FFFFFF" stroke="#E7ECF2" stroke-width="0.8" />
<text x="564.0" y="352.0" text-anchor="middle" font-size="9" font-family="Arial, Helvetica, sans-serif" font-weight="600" fill="#5B6472" >prepares</text>
<path d="M 864.0 358.0 C 872.0 358.0, 872.0 358.0, 880.0 358.0" fill="none" stroke="#2C6A93" stroke-width="2.1" marker-end="url(#arrow)" opacity="0.72"/>
<rect x="841.0" y="338.0" width="62.0" height="19.0" rx="9" fill="#FFFFFF" stroke="#E7ECF2" stroke-width="0.8" />
<text x="872.0" y="352.0" text-anchor="middle" font-size="9" font-family="Arial, Helvetica, sans-serif" font-weight="600" fill="#5B6472" >constructs</text>
<path d="M 1026.0 388.0 C 1026.0 433.0, 410.0 433.0, 410.0 478.0" fill="none" stroke="#2C6A93" stroke-width="2.1" marker-end="url(#arrow)" opacity="0.72" stroke-dasharray="6 5"/>
<rect x="687.0" y="413.0" width="62.0" height="19.0" rx="9" fill="#FFFFFF" stroke="#E7ECF2" stroke-width="0.8" />
<text x="718.0" y="427.0" text-anchor="middle" font-size="9" font-family="Arial, Helvetica, sans-serif" font-weight="600" fill="#5B6472" >filters</text>
<path d="M 556.0 508.0 C 564.0 508.0, 564.0 508.0, 572.0 508.0" fill="none" stroke="#2C6A93" stroke-width="2.1" marker-end="url(#arrow)" opacity="0.72"/>
<rect x="533.0" y="488.0" width="62.0" height="19.0" rx="9" fill="#FFFFFF" stroke="#E7ECF2" stroke-width="0.8" />
<text x="564.0" y="502.0" text-anchor="middle" font-size="9" font-family="Arial, Helvetica, sans-serif" font-weight="600" fill="#5B6472" >trains</text>
<path d="M 864.0 508.0 C 872.0 508.0, 872.0 508.0, 880.0 508.0" fill="none" stroke="#2C6A93" stroke-width="2.1" marker-end="url(#arrow)" opacity="0.72"/>
<rect x="841.0" y="488.0" width="62.0" height="19.0" rx="9" fill="#FFFFFF" stroke="#E7ECF2" stroke-width="0.8" />
<text x="872.0" y="502.0" text-anchor="middle" font-size="9" font-family="Arial, Helvetica, sans-serif" font-weight="600" fill="#5B6472" >qualifies</text>
<path d="M 1026.0 538.0 C 1026.0 583.0, 487.0 583.0, 487.0 628.0" fill="none" stroke="#2C6A93" stroke-width="2.1" marker-end="url(#arrow)" opacity="0.72" stroke-dasharray="6 5"/>
<rect x="725.5" y="563.0" width="62.0" height="19.0" rx="9" fill="#FFFFFF" stroke="#E7ECF2" stroke-width="0.8" />
<text x="756.5" y="577.0" text-anchor="middle" font-size="9" font-family="Arial, Helvetica, sans-serif" font-weight="600" fill="#5B6472" >tests</text>
<path d="M 710.0 658.0 C 718.0 658.0, 718.0 658.0, 726.0 658.0" fill="none" stroke="#2C6A93" stroke-width="2.1" marker-end="url(#arrow)" opacity="0.72"/>
<rect x="687.0" y="638.0" width="62.0" height="19.0" rx="9" fill="#FFFFFF" stroke="#E7ECF2" stroke-width="0.8" />
<text x="718.0" y="652.0" text-anchor="middle" font-size="9" font-family="Arial, Helvetica, sans-serif" font-weight="600" fill="#5B6472" >checks</text>
<path d="M 949.0 688.0 C 949.0 733.0, 487.0 733.0, 487.0 778.0" fill="none" stroke="#2C6A93" stroke-width="2.1" marker-end="url(#arrow)" opacity="0.72" stroke-dasharray="6 5"/>
<rect x="687.0" y="713.0" width="62.0" height="19.0" rx="9" fill="#FFFFFF" stroke="#E7ECF2" stroke-width="0.8" />
<text x="718.0" y="727.0" text-anchor="middle" font-size="9" font-family="Arial, Helvetica, sans-serif" font-weight="600" fill="#5B6472" >supports</text>
<path d="M 710.0 808.0 C 718.0 808.0, 718.0 808.0, 726.0 808.0" fill="none" stroke="#2C6A93" stroke-width="2.1" marker-end="url(#arrow)" opacity="0.72"/>
<rect x="687.0" y="788.0" width="62.0" height="19.0" rx="9" fill="#FFFFFF" stroke="#E7ECF2" stroke-width="0.8" />
<text x="718.0" y="802.0" text-anchor="middle" font-size="9" font-family="Arial, Helvetica, sans-serif" font-weight="600" fill="#5B6472" >writes</text>
<g class="node" data-node="objective_problem" style="cursor:pointer">
<rect x="264.0" y="178.0" width="446.0" height="60.0" rx="10" fill="#FFFFFF" stroke="#9FB6C4" stroke-width="1.45" filter="url(#softShadow)"/>
<circle cx="278.0" cy="192.0" r="4.2" fill="#F7C744" opacity="0.86"/>
<text x="487.0" y="212.0" text-anchor="middle" font-size="12" font-family="Arial, Helvetica, sans-serif" font-weight="600" fill="#162033" >Define degradation risk</text>
</g>
<g class="node" data-node="objective_scope" style="cursor:pointer">
<rect x="726.0" y="178.0" width="446.0" height="60.0" rx="10" fill="#FFFFFF" stroke="#9FB6C4" stroke-width="1.45" filter="url(#softShadow)"/>
<circle cx="740.0" cy="192.0" r="4.2" fill="#F7C744" opacity="0.86"/>
<text x="949.0" y="212.0" text-anchor="middle" font-size="12" font-family="Arial, Helvetica, sans-serif" font-weight="600" fill="#162033" >Set evaluation scope</text>
</g>
<g class="node" data-node="content_collect" style="cursor:pointer">
<rect x="264.0" y="328.0" width="292.0" height="60.0" rx="10" fill="#FFFFFF" stroke="#9FB6C4" stroke-width="1.45" filter="url(#softShadow)"/>
<circle cx="278.0" cy="342.0" r="4.2" fill="#F7C744" opacity="0.86"/>
<text x="410.0" y="362.0" text-anchor="middle" font-size="12" font-family="Arial, Helvetica, sans-serif" font-weight="600" fill="#162033" >Collect field evidence</text>
</g>
<g class="node" data-node="content_clean" style="cursor:pointer">
<rect x="572.0" y="328.0" width="292.0" height="60.0" rx="10" fill="#FFFFFF" stroke="#9FB6C4" stroke-width="1.45" filter="url(#softShadow)"/>
<circle cx="586.0" cy="342.0" r="4.2" fill="#F7C744" opacity="0.86"/>
<text x="718.0" y="362.0" text-anchor="middle" font-size="12" font-family="Arial, Helvetica, sans-serif" font-weight="600" fill="#162033" >Clean and align records</text>
</g>
<g class="node" data-node="content_indicators" style="cursor:pointer">
<rect x="880.0" y="328.0" width="292.0" height="60.0" rx="10" fill="#FFFFFF" stroke="#9FB6C4" stroke-width="1.45" filter="url(#softShadow)"/>
<circle cx="894.0" cy="342.0" r="4.2" fill="#F7C744" opacity="0.86"/>
<text x="1026.0" y="362.0" text-anchor="middle" font-size="12" font-family="Arial, Helvetica, sans-serif" font-weight="600" fill="#162033" >Construct indicators</text>
</g>
<g class="node" data-node="technology_select" style="cursor:pointer">
<rect x="264.0" y="478.0" width="292.0" height="60.0" rx="10" fill="#FFFFFF" stroke="#9FB6C4" stroke-width="1.45" filter="url(#softShadow)"/>
<circle cx="278.0" cy="492.0" r="4.2" fill="#F7C744" opacity="0.86"/>
<text x="410.0" y="512.0" text-anchor="middle" font-size="12" font-family="Arial, Helvetica, sans-serif" font-weight="600" fill="#162033" >Select feature groups</text>
</g>
<g class="node" data-node="technology_model" style="cursor:pointer">
<rect x="572.0" y="478.0" width="292.0" height="60.0" rx="10" fill="#FFFFFF" stroke="#9FB6C4" stroke-width="1.45" filter="url(#softShadow)"/>
<circle cx="586.0" cy="492.0" r="4.2" fill="#F7C744" opacity="0.86"/>
<text x="718.0" y="512.0" text-anchor="middle" font-size="12" font-family="Arial, Helvetica, sans-serif" font-weight="600" fill="#162033" >Fit risk model</text>
</g>
<g class="node" data-node="technology_uncertainty" style="cursor:pointer">
<rect x="880.0" y="478.0" width="292.0" height="60.0" rx="10" fill="#FFFFFF" stroke="#9FB6C4" stroke-width="1.45" filter="url(#softShadow)"/>
<circle cx="894.0" cy="492.0" r="4.2" fill="#F7C744" opacity="0.86"/>
<text x="1026.0" y="512.0" text-anchor="middle" font-size="12" font-family="Arial, Helvetica, sans-serif" font-weight="600" fill="#162033" >Estimate uncertainty</text>
</g>
<g class="node" data-node="validation_cases" style="cursor:pointer">
<rect x="264.0" y="628.0" width="446.0" height="60.0" rx="10" fill="#FFFFFF" stroke="#9FB6C4" stroke-width="1.45" filter="url(#softShadow)"/>
<circle cx="278.0" cy="642.0" r="4.2" fill="#F7C744" opacity="0.86"/>
<text x="487.0" y="662.0" text-anchor="middle" font-size="12" font-family="Arial, Helvetica, sans-serif" font-weight="600" fill="#162033" >Validate fault cases</text>
</g>
<g class="node" data-node="validation_ablation" style="cursor:pointer">
<rect x="726.0" y="628.0" width="446.0" height="60.0" rx="10" fill="#FFFFFF" stroke="#9FB6C4" stroke-width="1.45" filter="url(#softShadow)"/>
<circle cx="740.0" cy="642.0" r="4.2" fill="#F7C744" opacity="0.86"/>
<text x="949.0" y="662.0" text-anchor="middle" font-size="12" font-family="Arial, Helvetica, sans-serif" font-weight="600" fill="#162033" >Review feature ablation</text>
</g>
<g class="node" data-node="output_priority" style="cursor:pointer">
<rect x="264.0" y="778.0" width="446.0" height="60.0" rx="10" fill="#FFFFFF" stroke="#9FB6C4" stroke-width="1.45" filter="url(#softShadow)"/>
<circle cx="278.0" cy="792.0" r="4.2" fill="#F7C744" opacity="0.86"/>
<text x="487.0" y="812.0" text-anchor="middle" font-size="12" font-family="Arial, Helvetica, sans-serif" font-weight="600" fill="#162033" >Output inspection priority</text>
</g>
<g class="node" data-node="output_thesis" style="cursor:pointer">
<rect x="726.0" y="778.0" width="446.0" height="60.0" rx="10" fill="#FFFFFF" stroke="#9FB6C4" stroke-width="1.45" filter="url(#softShadow)"/>
<circle cx="740.0" cy="792.0" r="4.2" fill="#F7C744" opacity="0.86"/>
<text x="949.0" y="812.0" text-anchor="middle" font-size="12" font-family="Arial, Helvetica, sans-serif" font-weight="600" fill="#162033" >Support thesis chapters</text>
</g>
</svg>