<svg xmlns="http://www.w3.org/2000/svg" width="1060" height="1272" viewBox="0 0 1060 1272">
<defs>
<marker id="arrow" viewBox="0 0 10 10" refX="9" refY="5" markerWidth="8" markerHeight="8" orient="auto-start-reverse"><path d="M 0 0 L 10 5 L 0 10 z" fill="#4C8CBF"/></marker>
<filter id="softShadow" x="-20%" y="-20%" width="140%" height="140%"><feDropShadow dx="0" dy="2" stdDeviation="2" flood-color="#CBD5E1" flood-opacity="0.32"/></filter>
</defs>
<rect width="100%" height="100%" fill="#FFFFFF"/>
<rect x="10.0" y="10.0" width="1040.0" height="1252.0" rx="18" fill="none" stroke="#D8E5EE" stroke-width="1.0" />
<rect x="310.0" y="18.0" width="440.0" height="58.0" rx="28" fill="#FFFFFF" stroke="#F9E3EB" stroke-width="2.2" filter="url(#softShadow)"/>
<text x="530.0" y="52.0" text-anchor="middle" font-size="25" font-family="Arial, Helvetica, sans-serif" font-weight="700" fill="#13243A" >光伏自清洁涂层开题技术路线图</text>
<text x="530.0" y="92.0" text-anchor="middle" font-size="12" font-family="Arial, Helvetica, sans-serif" font-weight="400" fill="#5D6B7A" >中文开题报告示例：材料设计、性能测试与光伏应用验证</text>
<line x1="96.0" y1="176.0" x2="96.0" y2="1170.0" stroke="#F36F7B" stroke-width="3" opacity="0.82"/>
<circle cx="96.0" cy="249.0" r="7" fill="#F36F7B"/>
<rect x="40.0" y="215.0" width="72.0" height="68.0" rx="12" fill="#DDF3F3" stroke="none" stroke-width="1.5" />
<text x="76.0" y="253.0" text-anchor="middle" font-size="15" font-family="Arial, Helvetica, sans-serif" font-weight="700" fill="#13243A" >研究目标</text>
<circle cx="96.0" cy="461.0" r="7" fill="#F36F7B"/>
<rect x="40.0" y="427.0" width="72.0" height="68.0" rx="12" fill="#F9E3EB" stroke="none" stroke-width="1.5" />
<text x="76.0" y="465.0" text-anchor="middle" font-size="15" font-family="Arial, Helvetica, sans-serif" font-weight="700" fill="#13243A" >研究内容</text>
<circle cx="96.0" cy="673.0" r="7" fill="#F36F7B"/>
<rect x="40.0" y="639.0" width="72.0" height="68.0" rx="12" fill="#FFF1C9" stroke="none" stroke-width="1.5" />
<text x="76.0" y="677.0" text-anchor="middle" font-size="15" font-family="Arial, Helvetica, sans-serif" font-weight="700" fill="#13243A" >关键技术</text>
<circle cx="96.0" cy="885.0" r="7" fill="#F36F7B"/>
<rect x="40.0" y="851.0" width="72.0" height="68.0" rx="12" fill="#DDECF8" stroke="none" stroke-width="1.5" />
<text x="76.0" y="889.0" text-anchor="middle" font-size="15" font-family="Arial, Helvetica, sans-serif" font-weight="700" fill="#13243A" >实验验证</text>
<circle cx="96.0" cy="1097.0" r="7" fill="#F36F7B"/>
<rect x="40.0" y="1063.0" width="72.0" height="68.0" rx="12" fill="#E7F5DA" stroke="none" stroke-width="1.5" />
<text x="76.0" y="1101.0" text-anchor="middle" font-size="15" font-family="Arial, Helvetica, sans-serif" font-weight="700" fill="#13243A" >预期成果</text>
<rect x="194.0" y="164.0" width="790.0" height="170.0" rx="22" fill="#DDF3F3" stroke="#78B5C7" stroke-width="1.6" stroke-dasharray="7 6" opacity="0.92"/>
<rect x="222.0" y="147.0" width="170.0" height="34.0" rx="10" fill="#64C7C8" stroke="#64C7C8" stroke-width="1.0" filter="url(#softShadow)"/>
<text x="307.0" y="169.0" text-anchor="middle" font-size="14" font-family="Arial, Helvetica, sans-serif" font-weight="700" fill="#102033" >研究目标</text>
<rect x="194.0" y="376.0" width="790.0" height="170.0" rx="22" fill="#F9E3EB" stroke="#78B5C7" stroke-width="1.6" stroke-dasharray="7 6" opacity="0.92"/>
<rect x="222.0" y="359.0" width="170.0" height="34.0" rx="10" fill="#64C7C8" stroke="#64C7C8" stroke-width="1.0" filter="url(#softShadow)"/>
<text x="307.0" y="381.0" text-anchor="middle" font-size="14" font-family="Arial, Helvetica, sans-serif" font-weight="700" fill="#102033" >研究内容</text>
<rect x="194.0" y="588.0" width="790.0" height="170.0" rx="22" fill="#FFF1C9" stroke="#78B5C7" stroke-width="1.6" stroke-dasharray="7 6" opacity="0.92"/>
<rect x="222.0" y="571.0" width="170.0" height="34.0" rx="10" fill="#64C7C8" stroke="#64C7C8" stroke-width="1.0" filter="url(#softShadow)"/>
<text x="307.0" y="593.0" text-anchor="middle" font-size="14" font-family="Arial, Helvetica, sans-serif" font-weight="700" fill="#102033" >关键技术</text>
<rect x="194.0" y="800.0" width="790.0" height="170.0" rx="22" fill="#DDECF8" stroke="#78B5C7" stroke-width="1.6" stroke-dasharray="7 6" opacity="0.92"/>
<rect x="222.0" y="783.0" width="170.0" height="34.0" rx="10" fill="#64C7C8" stroke="#64C7C8" stroke-width="1.0" filter="url(#softShadow)"/>
<text x="307.0" y="805.0" text-anchor="middle" font-size="14" font-family="Arial, Helvetica, sans-serif" font-weight="700" fill="#102033" >实验验证</text>
<rect x="194.0" y="1012.0" width="790.0" height="170.0" rx="22" fill="#E7F5DA" stroke="#78B5C7" stroke-width="1.6" stroke-dasharray="7 6" opacity="0.92"/>
<rect x="222.0" y="995.0" width="170.0" height="34.0" rx="10" fill="#64C7C8" stroke="#64C7C8" stroke-width="1.0" filter="url(#softShadow)"/>
<text x="307.0" y="1017.0" text-anchor="middle" font-size="14" font-family="Arial, Helvetica, sans-serif" font-weight="700" fill="#102033" >预期成果</text>
<path d="M 404.5 298.0 C 404.5 266.0, 773.5 266.0, 773.5 234.0" fill="none" stroke="#4C8CBF" stroke-width="2.1" marker-end="url(#arrow)" opacity="0.72"/>
<rect x="558.0" y="246.0" width="62.0" height="19.0" rx="9" fill="#FFFFFF" stroke="#E7ECF2" stroke-width="0.8" />
<text x="589.0" y="260.0" text-anchor="middle" font-size="9" font-family="Arial, Helvetica, sans-serif" font-weight="600" fill="#5D6B7A" >明确价值</text>
<path d="M 773.5 298.0 C 773.5 372.0, 343.0 372.0, 343.0 446.0" fill="none" stroke="#4C8CBF" stroke-width="2.1" marker-end="url(#arrow)" opacity="0.72" stroke-dasharray="6 5"/>
<rect x="527.2" y="352.0" width="62.0" height="19.0" rx="9" fill="#FFFFFF" stroke="#E7ECF2" stroke-width="0.8" />
<text x="558.2" y="366.0" text-anchor="middle" font-size="9" font-family="Arial, Helvetica, sans-serif" font-weight="600" fill="#5D6B7A" >指导设计</text>
<path d="M 343.0 510.0 C 343.0 478.0, 589.0 478.0, 589.0 446.0" fill="none" stroke="#4C8CBF" stroke-width="2.1" marker-end="url(#arrow)" opacity="0.72"/>
<rect x="435.0" y="458.0" width="62.0" height="19.0" rx="9" fill="#FFFFFF" stroke="#E7ECF2" stroke-width="0.8" />
<text x="466.0" y="472.0" text-anchor="middle" font-size="9" font-family="Arial, Helvetica, sans-serif" font-weight="600" fill="#5D6B7A" >构筑结构</text>
<path d="M 589.0 510.0 C 589.0 478.0, 835.0 478.0, 835.0 446.0" fill="none" stroke="#4C8CBF" stroke-width="2.1" marker-end="url(#arrow)" opacity="0.72"/>
<rect x="681.0" y="458.0" width="62.0" height="19.0" rx="9" fill="#FFFFFF" stroke="#E7ECF2" stroke-width="0.8" />
<text x="712.0" y="472.0" text-anchor="middle" font-size="9" font-family="Arial, Helvetica, sans-serif" font-weight="600" fill="#5D6B7A" >形成工艺</text>
<path d="M 835.0 510.0 C 835.0 584.0, 343.0 584.0, 343.0 658.0" fill="none" stroke="#4C8CBF" stroke-width="2.1" marker-end="url(#arrow)" opacity="0.72" stroke-dasharray="6 5"/>
<rect x="558.0" y="564.0" width="62.0" height="19.0" rx="9" fill="#FFFFFF" stroke="#E7ECF2" stroke-width="0.8" />
<text x="589.0" y="578.0" text-anchor="middle" font-size="9" font-family="Arial, Helvetica, sans-serif" font-weight="600" fill="#5D6B7A" >评价润湿</text>
<path d="M 343.0 722.0 C 343.0 690.0, 589.0 690.0, 589.0 658.0" fill="none" stroke="#4C8CBF" stroke-width="2.1" marker-end="url(#arrow)" opacity="0.72"/>
<rect x="435.0" y="670.0" width="62.0" height="19.0" rx="9" fill="#FFFFFF" stroke="#E7ECF2" stroke-width="0.8" />
<text x="466.0" y="684.0" text-anchor="middle" font-size="9" font-family="Arial, Helvetica, sans-serif" font-weight="600" fill="#5D6B7A" >平衡耐久</text>
<path d="M 589.0 722.0 C 589.0 690.0, 835.0 690.0, 835.0 658.0" fill="none" stroke="#4C8CBF" stroke-width="2.1" marker-end="url(#arrow)" opacity="0.72"/>
<rect x="681.0" y="670.0" width="62.0" height="19.0" rx="9" fill="#FFFFFF" stroke="#E7ECF2" stroke-width="0.8" />
<text x="712.0" y="684.0" text-anchor="middle" font-size="9" font-family="Arial, Helvetica, sans-serif" font-weight="600" fill="#5D6B7A" >约束透光</text>
<path d="M 835.0 722.0 C 835.0 796.0, 343.0 796.0, 343.0 870.0" fill="none" stroke="#4C8CBF" stroke-width="2.1" marker-end="url(#arrow)" opacity="0.72" stroke-dasharray="6 5"/>
<rect x="558.0" y="776.0" width="62.0" height="19.0" rx="9" fill="#FFFFFF" stroke="#E7ECF2" stroke-width="0.8" />
<text x="589.0" y="790.0" text-anchor="middle" font-size="9" font-family="Arial, Helvetica, sans-serif" font-weight="600" fill="#5D6B7A" >开展表征</text>
<path d="M 343.0 934.0 C 343.0 902.0, 589.0 902.0, 589.0 870.0" fill="none" stroke="#4C8CBF" stroke-width="2.1" marker-end="url(#arrow)" opacity="0.72"/>
<rect x="435.0" y="882.0" width="62.0" height="19.0" rx="9" fill="#FFFFFF" stroke="#E7ECF2" stroke-width="0.8" />
<text x="466.0" y="896.0" text-anchor="middle" font-size="9" font-family="Arial, Helvetica, sans-serif" font-weight="600" fill="#5D6B7A" >验证功能</text>
<path d="M 589.0 934.0 C 589.0 902.0, 835.0 902.0, 835.0 870.0" fill="none" stroke="#4C8CBF" stroke-width="2.1" marker-end="url(#arrow)" opacity="0.72"/>
<rect x="681.0" y="882.0" width="62.0" height="19.0" rx="9" fill="#FFFFFF" stroke="#E7ECF2" stroke-width="0.8" />
<text x="712.0" y="896.0" text-anchor="middle" font-size="9" font-family="Arial, Helvetica, sans-serif" font-weight="600" fill="#5D6B7A" >关联应用</text>
<path d="M 835.0 934.0 C 835.0 1008.0, 404.5 1008.0, 404.5 1082.0" fill="none" stroke="#4C8CBF" stroke-width="2.1" marker-end="url(#arrow)" opacity="0.72" stroke-dasharray="6 5"/>
<rect x="588.8" y="988.0" width="62.0" height="19.0" rx="9" fill="#FFFFFF" stroke="#E7ECF2" stroke-width="0.8" />
<text x="619.8" y="1002.0" text-anchor="middle" font-size="9" font-family="Arial, Helvetica, sans-serif" font-weight="600" fill="#5D6B7A" >支撑路线</text>
<path d="M 404.5 1146.0 C 404.5 1114.0, 773.5 1114.0, 773.5 1082.0" fill="none" stroke="#4C8CBF" stroke-width="2.1" marker-end="url(#arrow)" opacity="0.72"/>
<rect x="558.0" y="1094.0" width="62.0" height="19.0" rx="9" fill="#FFFFFF" stroke="#E7ECF2" stroke-width="0.8" />
<text x="589.0" y="1108.0" text-anchor="middle" font-size="9" font-family="Arial, Helvetica, sans-serif" font-weight="600" fill="#5D6B7A" >写入论文</text>
<g class="node" data-node="objective_problem" style="cursor:pointer">
<rect x="229.0" y="234.0" width="351.0" height="64.0" rx="10" fill="#FFFFFF" stroke="#A8B8C5" stroke-width="1.45" filter="url(#softShadow)"/>
<circle cx="243.0" cy="248.0" r="4.2" fill="#F6C54B" opacity="0.86"/>
<text x="404.5" y="270.0" text-anchor="middle" font-size="12" font-family="Arial, Helvetica, sans-serif" font-weight="600" fill="#13243A" >降低表面污染</text>
</g>
<g class="node" data-node="objective_value" style="cursor:pointer">
<rect x="598.0" y="234.0" width="351.0" height="64.0" rx="10" fill="#FFFFFF" stroke="#A8B8C5" stroke-width="1.45" filter="url(#softShadow)"/>
<circle cx="612.0" cy="248.0" r="4.2" fill="#F6C54B" opacity="0.86"/>
<text x="773.5" y="270.0" text-anchor="middle" font-size="12" font-family="Arial, Helvetica, sans-serif" font-weight="600" fill="#13243A" >保护透光效率</text>
</g>
<g class="node" data-node="content_material" style="cursor:pointer">
<rect x="229.0" y="446.0" width="228.0" height="64.0" rx="10" fill="#FFFFFF" stroke="#A8B8C5" stroke-width="1.45" filter="url(#softShadow)"/>
<circle cx="243.0" cy="460.0" r="4.2" fill="#F6C54B" opacity="0.86"/>
<text x="343.0" y="482.0" text-anchor="middle" font-size="12" font-family="Arial, Helvetica, sans-serif" font-weight="600" fill="#13243A" >筛选涂层体系</text>
</g>
<g class="node" data-node="content_texture" style="cursor:pointer">
<rect x="475.0" y="446.0" width="228.0" height="64.0" rx="10" fill="#FFFFFF" stroke="#A8B8C5" stroke-width="1.45" filter="url(#softShadow)"/>
<circle cx="489.0" cy="460.0" r="4.2" fill="#F6C54B" opacity="0.86"/>
<text x="589.0" y="482.0" text-anchor="middle" font-size="12" font-family="Arial, Helvetica, sans-serif" font-weight="600" fill="#13243A" >构筑微纳结构</text>
</g>
<g class="node" data-node="content_process" style="cursor:pointer">
<rect x="721.0" y="446.0" width="228.0" height="64.0" rx="10" fill="#FFFFFF" stroke="#A8B8C5" stroke-width="1.45" filter="url(#softShadow)"/>
<circle cx="735.0" cy="460.0" r="4.2" fill="#F6C54B" opacity="0.86"/>
<text x="835.0" y="482.0" text-anchor="middle" font-size="12" font-family="Arial, Helvetica, sans-serif" font-weight="600" fill="#13243A" >设计制备工艺</text>
</g>
<g class="node" data-node="technology_wetting" style="cursor:pointer">
<rect x="229.0" y="658.0" width="228.0" height="64.0" rx="10" fill="#FFFFFF" stroke="#A8B8C5" stroke-width="1.45" filter="url(#softShadow)"/>
<circle cx="243.0" cy="672.0" r="4.2" fill="#F6C54B" opacity="0.86"/>
<text x="343.0" y="694.0" text-anchor="middle" font-size="12" font-family="Arial, Helvetica, sans-serif" font-weight="600" fill="#13243A" >调控润湿行为</text>
</g>
<g class="node" data-node="technology_durability" style="cursor:pointer">
<rect x="475.0" y="658.0" width="228.0" height="64.0" rx="10" fill="#FFFFFF" stroke="#A8B8C5" stroke-width="1.45" filter="url(#softShadow)"/>
<circle cx="489.0" cy="672.0" r="4.2" fill="#F6C54B" opacity="0.86"/>
<text x="589.0" y="694.0" text-anchor="middle" font-size="12" font-family="Arial, Helvetica, sans-serif" font-weight="600" fill="#13243A" >提升服役耐久性</text>
</g>
<g class="node" data-node="technology_transparency" style="cursor:pointer">
<rect x="721.0" y="658.0" width="228.0" height="64.0" rx="10" fill="#FFFFFF" stroke="#A8B8C5" stroke-width="1.45" filter="url(#softShadow)"/>
<circle cx="735.0" cy="672.0" r="4.2" fill="#F6C54B" opacity="0.86"/>
<text x="835.0" y="694.0" text-anchor="middle" font-size="12" font-family="Arial, Helvetica, sans-serif" font-weight="600" fill="#13243A" >保持高透光率</text>
</g>
<g class="node" data-node="validation_surface" style="cursor:pointer">
<rect x="229.0" y="870.0" width="228.0" height="64.0" rx="10" fill="#FFFFFF" stroke="#A8B8C5" stroke-width="1.45" filter="url(#softShadow)"/>
<circle cx="243.0" cy="884.0" r="4.2" fill="#F6C54B" opacity="0.86"/>
<text x="343.0" y="906.0" text-anchor="middle" font-size="12" font-family="Arial, Helvetica, sans-serif" font-weight="600" fill="#13243A" >表征表面结构</text>
</g>
<g class="node" data-node="validation_cleaning" style="cursor:pointer">
<rect x="475.0" y="870.0" width="228.0" height="64.0" rx="10" fill="#FFFFFF" stroke="#A8B8C5" stroke-width="1.45" filter="url(#softShadow)"/>
<circle cx="489.0" cy="884.0" r="4.2" fill="#F6C54B" opacity="0.86"/>
<text x="589.0" y="906.0" text-anchor="middle" font-size="12" font-family="Arial, Helvetica, sans-serif" font-weight="600" fill="#13243A" >测试自清洁功能</text>
</g>
<g class="node" data-node="validation_power" style="cursor:pointer">
<rect x="721.0" y="870.0" width="228.0" height="64.0" rx="10" fill="#FFFFFF" stroke="#A8B8C5" stroke-width="1.45" filter="url(#softShadow)"/>
<circle cx="735.0" cy="884.0" r="4.2" fill="#F6C54B" opacity="0.86"/>
<text x="835.0" y="906.0" text-anchor="middle" font-size="12" font-family="Arial, Helvetica, sans-serif" font-weight="600" fill="#13243A" >测量发电影响</text>
</g>
<g class="node" data-node="outcome_route" style="cursor:pointer">
<rect x="229.0" y="1082.0" width="351.0" height="64.0" rx="10" fill="#FFFFFF" stroke="#A8B8C5" stroke-width="1.45" filter="url(#softShadow)"/>
<circle cx="243.0" cy="1096.0" r="4.2" fill="#F6C54B" opacity="0.86"/>
<text x="404.5" y="1118.0" text-anchor="middle" font-size="12" font-family="Arial, Helvetica, sans-serif" font-weight="600" fill="#13243A" >形成技术路线</text>
</g>
<g class="node" data-node="outcome_thesis" style="cursor:pointer">
<rect x="598.0" y="1082.0" width="351.0" height="64.0" rx="10" fill="#FFFFFF" stroke="#A8B8C5" stroke-width="1.45" filter="url(#softShadow)"/>
<circle cx="612.0" cy="1096.0" r="4.2" fill="#F6C54B" opacity="0.86"/>
<text x="773.5" y="1118.0" text-anchor="middle" font-size="12" font-family="Arial, Helvetica, sans-serif" font-weight="600" fill="#13243A" >支撑论文写作</text>
</g>
</svg>