<svg xmlns="http://www.w3.org/2000/svg" width="1120" height="1290" viewBox="0 0 1120 1290">
<defs>
<marker id="arrow" viewBox="0 0 10 10" refX="9" refY="5" markerWidth="8" markerHeight="8" orient="auto-start-reverse"><path d="M 0 0 L 10 5 L 0 10 z" fill="#2C6A93"/></marker>
<filter id="softShadow" x="-20%" y="-20%" width="140%" height="140%"><feDropShadow dx="0" dy="2" stdDeviation="2" flood-color="#CBD5E1" flood-opacity="0.32"/></filter>
</defs>
<rect width="100%" height="100%" fill="#FFFFFF"/>
<rect x="10.0" y="10.0" width="1100.0" height="1270.0" rx="18" fill="none" stroke="#D8E1EA" stroke-width="1.0" />
<rect x="281.0" y="18.0" width="558.0" height="58.0" rx="28" fill="#FFFFFF" stroke="#F7E0E8" stroke-width="2.2" filter="url(#softShadow)"/>
<text x="560.0" y="52.0" text-anchor="middle" font-size="25" font-family="Arial, Helvetica, sans-serif" font-weight="700" fill="#162033" >Thesis Proposal Technical Route</text>
<text x="560.0" y="92.0" text-anchor="middle" font-size="12" font-family="Arial, Helvetica, sans-serif" font-weight="400" fill="#5B6472" >Data-driven PV module degradation assessment demo</text>
<rect x="151.0" y="108.0" width="128.0" height="26.0" rx="13" fill="#FFFFFF" stroke="#F7E0E8" stroke-width="1.0" />
<text x="215.0" y="125.0" text-anchor="middle" font-size="10" font-family="Arial, Helvetica, sans-serif" font-weight="600" fill="#5B6472" >Research...</text>
<rect x="289.0" y="108.0" width="128.0" height="26.0" rx="13" fill="#FFFFFF" stroke="#FFF1C7" stroke-width="1.0" />
<text x="353.0" y="125.0" text-anchor="middle" font-size="10" font-family="Arial, Helvetica, sans-serif" font-weight="600" fill="#5B6472" >Source evidence</text>
<rect x="427.0" y="108.0" width="128.0" height="26.0" rx="13" fill="#FFFFFF" stroke="#DDECF9" stroke-width="1.0" />
<text x="491.0" y="125.0" text-anchor="middle" font-size="10" font-family="Arial, Helvetica, sans-serif" font-weight="600" fill="#5B6472" >Feature route</text>
<rect x="565.0" y="108.0" width="128.0" height="26.0" rx="13" fill="#FFFFFF" stroke="#E6F4D7" stroke-width="1.0" />
<text x="629.0" y="125.0" text-anchor="middle" font-size="10" font-family="Arial, Helvetica, sans-serif" font-weight="600" fill="#5B6472" >Modeling</text>
<rect x="703.0" y="108.0" width="128.0" height="26.0" rx="13" fill="#FFFFFF" stroke="#F6E7D7" stroke-width="1.0" />
<text x="767.0" y="125.0" text-anchor="middle" font-size="10" font-family="Arial, Helvetica, sans-serif" font-weight="600" fill="#5B6472" >Validation</text>
<rect x="841.0" y="108.0" width="128.0" height="26.0" rx="13" fill="#FFFFFF" stroke="#D9F2F2" stroke-width="1.0" />
<text x="905.0" y="125.0" text-anchor="middle" font-size="10" font-family="Arial, Helvetica, sans-serif" font-weight="600" fill="#5B6472" >Thesis output</text>
<line x1="102.0" y1="150.0" x2="102.0" y2="1192.0" stroke="#F36E78" stroke-width="3" opacity="0.82"/>
<circle cx="102.0" cy="211.0" r="7" fill="#F36E78"/>
<rect x="46.0" y="177.0" width="72.0" height="68.0" rx="12" fill="#D9F2F2" stroke="none" stroke-width="1.5" />
<text x="82.0" y="197.6" text-anchor="middle" font-size="15" font-family="Arial, Helvetica, sans-serif" font-weight="700" fill="#162033" >Rese</text>
<text x="82.0" y="215.6" text-anchor="middle" font-size="15" font-family="Arial, Helvetica, sans-serif" font-weight="700" fill="#162033" >arch</text>
<text x="82.0" y="233.6" text-anchor="middle" font-size="15" font-family="Arial, Helvetica, sans-serif" font-weight="700" fill="#162033" >Que...</text>
<circle cx="102.0" cy="395.0" r="7" fill="#F36E78"/>
<rect x="46.0" y="361.0" width="72.0" height="68.0" rx="12" fill="#F7E0E8" stroke="none" stroke-width="1.5" />
<text x="82.0" y="381.6" text-anchor="middle" font-size="15" font-family="Arial, Helvetica, sans-serif" font-weight="700" fill="#162033" >Sour</text>
<text x="82.0" y="399.6" text-anchor="middle" font-size="15" font-family="Arial, Helvetica, sans-serif" font-weight="700" fill="#162033" >ce</text>
<text x="82.0" y="417.6" text-anchor="middle" font-size="15" font-family="Arial, Helvetica, sans-serif" font-weight="700" fill="#162033" >Evi...</text>
<circle cx="102.0" cy="579.0" r="7" fill="#F36E78"/>
<rect x="46.0" y="545.0" width="72.0" height="68.0" rx="12" fill="#FFF1C7" stroke="none" stroke-width="1.5" />
<text x="82.0" y="565.6" text-anchor="middle" font-size="15" font-family="Arial, Helvetica, sans-serif" font-weight="700" fill="#162033" >Feat</text>
<text x="82.0" y="583.6" text-anchor="middle" font-size="15" font-family="Arial, Helvetica, sans-serif" font-weight="700" fill="#162033" >ure</text>
<text x="82.0" y="601.6" text-anchor="middle" font-size="15" font-family="Arial, Helvetica, sans-serif" font-weight="700" fill="#162033" >Rou...</text>
<circle cx="102.0" cy="763.0" r="7" fill="#F36E78"/>
<rect x="46.0" y="729.0" width="72.0" height="68.0" rx="12" fill="#DDECF9" stroke="none" stroke-width="1.5" />
<text x="82.0" y="758.3" text-anchor="middle" font-size="15" font-family="Arial, Helvetica, sans-serif" font-weight="700" fill="#162033" >Mode</text>
<text x="82.0" y="776.3" text-anchor="middle" font-size="15" font-family="Arial, Helvetica, sans-serif" font-weight="700" fill="#162033" >ling</text>
<circle cx="102.0" cy="947.0" r="7" fill="#F36E78"/>
<rect x="46.0" y="913.0" width="72.0" height="68.0" rx="12" fill="#E6F4D7" stroke="none" stroke-width="1.5" />
<text x="82.0" y="933.6" text-anchor="middle" font-size="15" font-family="Arial, Helvetica, sans-serif" font-weight="700" fill="#162033" >Vali</text>
<text x="82.0" y="951.6" text-anchor="middle" font-size="15" font-family="Arial, Helvetica, sans-serif" font-weight="700" fill="#162033" >dati</text>
<text x="82.0" y="969.6" text-anchor="middle" font-size="15" font-family="Arial, Helvetica, sans-serif" font-weight="700" fill="#162033" >on</text>
<circle cx="102.0" cy="1131.0" r="7" fill="#F36E78"/>
<rect x="46.0" y="1097.0" width="72.0" height="68.0" rx="12" fill="#F6E7D7" stroke="none" stroke-width="1.5" />
<text x="82.0" y="1117.6" text-anchor="middle" font-size="15" font-family="Arial, Helvetica, sans-serif" font-weight="700" fill="#162033" >Thes</text>
<text x="82.0" y="1135.6" text-anchor="middle" font-size="15" font-family="Arial, Helvetica, sans-serif" font-weight="700" fill="#162033" >is</text>
<text x="82.0" y="1153.6" text-anchor="middle" font-size="15" font-family="Arial, Helvetica, sans-serif" font-weight="700" fill="#162033" >Out...</text>
<rect x="202.0" y="138.0" width="842.0" height="146.0" rx="22" fill="#D9F2F2" stroke="#6FAEC3" stroke-width="1.6" stroke-dasharray="6 6" opacity="0.92"/>
<rect x="230.0" y="121.0" width="272.0" height="34.0" rx="10" fill="#7BCFD0" stroke="#7BCFD0" stroke-width="1.0" filter="url(#softShadow)"/>
<text x="366.0" y="143.0" text-anchor="middle" font-size="14" font-family="Arial, Helvetica, sans-serif" font-weight="700" fill="#122033" >Research Question</text>
<rect x="202.0" y="322.0" width="842.0" height="146.0" rx="22" fill="#F7E0E8" stroke="#6FAEC3" stroke-width="1.6" stroke-dasharray="6 6" opacity="0.92"/>
<rect x="230.0" y="305.0" width="240.0" height="34.0" rx="10" fill="#7BCFD0" stroke="#7BCFD0" stroke-width="1.0" filter="url(#softShadow)"/>
<text x="350.0" y="327.0" text-anchor="middle" font-size="14" font-family="Arial, Helvetica, sans-serif" font-weight="700" fill="#122033" >Source Evidence</text>
<rect x="202.0" y="506.0" width="842.0" height="146.0" rx="22" fill="#FFF1C7" stroke="#6FAEC3" stroke-width="1.6" stroke-dasharray="6 6" opacity="0.92"/>
<rect x="230.0" y="489.0" width="208.0" height="34.0" rx="10" fill="#7BCFD0" stroke="#7BCFD0" stroke-width="1.0" filter="url(#softShadow)"/>
<text x="334.0" y="511.0" text-anchor="middle" font-size="14" font-family="Arial, Helvetica, sans-serif" font-weight="700" fill="#122033" >Feature Route</text>
<rect x="202.0" y="690.0" width="842.0" height="146.0" rx="22" fill="#DDECF9" stroke="#6FAEC3" stroke-width="1.6" stroke-dasharray="6 6" opacity="0.92"/>
<rect x="230.0" y="673.0" width="170.0" height="34.0" rx="10" fill="#7BCFD0" stroke="#7BCFD0" stroke-width="1.0" filter="url(#softShadow)"/>
<text x="315.0" y="695.0" text-anchor="middle" font-size="14" font-family="Arial, Helvetica, sans-serif" font-weight="700" fill="#122033" >Modeling</text>
<rect x="202.0" y="874.0" width="842.0" height="146.0" rx="22" fill="#E6F4D7" stroke="#6FAEC3" stroke-width="1.6" stroke-dasharray="6 6" opacity="0.92"/>
<rect x="230.0" y="857.0" width="170.0" height="34.0" rx="10" fill="#7BCFD0" stroke="#7BCFD0" stroke-width="1.0" filter="url(#softShadow)"/>
<text x="315.0" y="879.0" text-anchor="middle" font-size="14" font-family="Arial, Helvetica, sans-serif" font-weight="700" fill="#122033" >Validation</text>
<rect x="202.0" y="1058.0" width="842.0" height="146.0" rx="22" fill="#F6E7D7" stroke="#6FAEC3" stroke-width="1.6" stroke-dasharray="6 6" opacity="0.92"/>
<rect x="230.0" y="1041.0" width="208.0" height="34.0" rx="10" fill="#7BCFD0" stroke="#7BCFD0" stroke-width="1.0" filter="url(#softShadow)"/>
<text x="334.0" y="1063.0" text-anchor="middle" font-size="14" font-family="Arial, Helvetica, sans-serif" font-weight="700" fill="#122033" >Thesis Output</text>
<path d="M 623.0 260.0 C 623.0 321.0, 426.0 321.0, 426.0 382.0" fill="none" stroke="#2C6A93" stroke-width="2.1" marker-end="url(#arrow)" opacity="0.72"/>
<rect x="493.5" y="301.0" width="62.0" height="19.0" rx="9" fill="#FFFFFF" stroke="#E7ECF2" stroke-width="0.8" />
<text x="524.5" y="315.0" text-anchor="middle" font-size="9" font-family="Arial, Helvetica, sans-serif" font-weight="600" fill="#5B6472" >requires...</text>
<path d="M 426.0 444.0 C 426.0 413.0, 820.0 413.0, 820.0 382.0" fill="none" stroke="#2C6A93" stroke-width="2.1" marker-end="url(#arrow)" opacity="0.72"/>
<rect x="592.0" y="393.0" width="62.0" height="19.0" rx="9" fill="#FFFFFF" stroke="#E7ECF2" stroke-width="0.8" />
<text x="623.0" y="407.0" text-anchor="middle" font-size="9" font-family="Arial, Helvetica, sans-serif" font-weight="600" fill="#5B6472" >prepares</text>
<path d="M 820.0 444.0 C 820.0 505.0, 426.0 505.0, 426.0 566.0" fill="none" stroke="#2C6A93" stroke-width="2.1" marker-end="url(#arrow)" opacity="0.72" stroke-dasharray="6 5"/>
<rect x="592.0" y="485.0" width="62.0" height="19.0" rx="9" fill="#FFFFFF" stroke="#E7ECF2" stroke-width="0.8" />
<text x="623.0" y="499.0" text-anchor="middle" font-size="9" font-family="Arial, Helvetica, sans-serif" font-weight="600" fill="#5B6472" >feeds</text>
<path d="M 426.0 628.0 C 426.0 597.0, 820.0 597.0, 820.0 566.0" fill="none" stroke="#2C6A93" stroke-width="2.1" marker-end="url(#arrow)" opacity="0.72"/>
<rect x="592.0" y="577.0" width="62.0" height="19.0" rx="9" fill="#FFFFFF" stroke="#E7ECF2" stroke-width="0.8" />
<text x="623.0" y="591.0" text-anchor="middle" font-size="9" font-family="Arial, Helvetica, sans-serif" font-weight="600" fill="#5B6472" >filters</text>
<path d="M 820.0 628.0 C 820.0 689.0, 426.0 689.0, 426.0 750.0" fill="none" stroke="#2C6A93" stroke-width="2.1" marker-end="url(#arrow)" opacity="0.72" stroke-dasharray="6 5"/>
<rect x="592.0" y="669.0" width="62.0" height="19.0" rx="9" fill="#FFFFFF" stroke="#E7ECF2" stroke-width="0.8" />
<text x="623.0" y="683.0" text-anchor="middle" font-size="9" font-family="Arial, Helvetica, sans-serif" font-weight="600" fill="#5B6472" >trains</text>
<path d="M 426.0 812.0 C 426.0 781.0, 820.0 781.0, 820.0 750.0" fill="none" stroke="#2C6A93" stroke-width="2.1" marker-end="url(#arrow)" opacity="0.72"/>
<rect x="592.0" y="761.0" width="62.0" height="19.0" rx="9" fill="#FFFFFF" stroke="#E7ECF2" stroke-width="0.8" />
<text x="623.0" y="775.0" text-anchor="middle" font-size="9" font-family="Arial, Helvetica, sans-serif" font-weight="600" fill="#5B6472" >qualifies</text>
<path d="M 820.0 812.0 C 820.0 873.0, 426.0 873.0, 426.0 934.0" fill="none" stroke="#2C6A93" stroke-width="2.1" marker-end="url(#arrow)" opacity="0.72" stroke-dasharray="6 5"/>
<rect x="592.0" y="853.0" width="62.0" height="19.0" rx="9" fill="#FFFFFF" stroke="#E7ECF2" stroke-width="0.8" />
<text x="623.0" y="867.0" text-anchor="middle" font-size="9" font-family="Arial, Helvetica, sans-serif" font-weight="600" fill="#5B6472" >tests</text>
<path d="M 426.0 996.0 C 426.0 965.0, 820.0 965.0, 820.0 934.0" fill="none" stroke="#2C6A93" stroke-width="2.1" marker-end="url(#arrow)" opacity="0.72"/>
<rect x="592.0" y="945.0" width="62.0" height="19.0" rx="9" fill="#FFFFFF" stroke="#E7ECF2" stroke-width="0.8" />
<text x="623.0" y="959.0" text-anchor="middle" font-size="9" font-family="Arial, Helvetica, sans-serif" font-weight="600" fill="#5B6472" >checks</text>
<path d="M 820.0 996.0 C 820.0 1057.0, 623.0 1057.0, 623.0 1118.0" fill="none" stroke="#2C6A93" stroke-width="2.1" marker-end="url(#arrow)" opacity="0.72" stroke-dasharray="6 5"/>
<rect x="690.5" y="1037.0" width="62.0" height="19.0" rx="9" fill="#FFFFFF" stroke="#E7ECF2" stroke-width="0.8" />
<text x="721.5" y="1051.0" text-anchor="middle" font-size="9" font-family="Arial, Helvetica, sans-serif" font-weight="600" fill="#5B6472" >supports</text>
<g class="node" data-node="question_define" style="cursor:pointer">
<rect x="237.0" y="198.0" width="772.0" height="62.0" rx="10" fill="#FFFFFF" stroke="#9FB6C4" stroke-width="1.45" filter="url(#softShadow)"/>
<circle cx="251.0" cy="212.0" r="4.2" fill="#F7C744" opacity="0.86"/>
<text x="623.0" y="233.0" text-anchor="middle" font-size="12" font-family="Arial, Helvetica, sans-serif" font-weight="600" fill="#162033" >Define degradation risk</text>
</g>
<g class="node" data-node="evidence_collect" style="cursor:pointer">
<rect x="237.0" y="382.0" width="378.0" height="62.0" rx="10" fill="#FFFFFF" stroke="#9FB6C4" stroke-width="1.45" filter="url(#softShadow)"/>
<circle cx="251.0" cy="396.0" r="4.2" fill="#F7C744" opacity="0.86"/>
<text x="426.0" y="417.0" text-anchor="middle" font-size="12" font-family="Arial, Helvetica, sans-serif" font-weight="600" fill="#162033" >Collect field evidence</text>
</g>
<g class="node" data-node="evidence_align" style="cursor:pointer">
<rect x="631.0" y="382.0" width="378.0" height="62.0" rx="10" fill="#FFFFFF" stroke="#9FB6C4" stroke-width="1.45" filter="url(#softShadow)"/>
<circle cx="645.0" cy="396.0" r="4.2" fill="#F7C744" opacity="0.86"/>
<text x="820.0" y="417.0" text-anchor="middle" font-size="12" font-family="Arial, Helvetica, sans-serif" font-weight="600" fill="#162033" >Clean and align data</text>
</g>
<g class="node" data-node="features_construct" style="cursor:pointer">
<rect x="237.0" y="566.0" width="378.0" height="62.0" rx="10" fill="#FFFFFF" stroke="#9FB6C4" stroke-width="1.45" filter="url(#softShadow)"/>
<circle cx="251.0" cy="580.0" r="4.2" fill="#F7C744" opacity="0.86"/>
<text x="426.0" y="601.0" text-anchor="middle" font-size="12" font-family="Arial, Helvetica, sans-serif" font-weight="600" fill="#162033" >Construct indicators</text>
</g>
<g class="node" data-node="features_select" style="cursor:pointer">
<rect x="631.0" y="566.0" width="378.0" height="62.0" rx="10" fill="#FFFFFF" stroke="#9FB6C4" stroke-width="1.45" filter="url(#softShadow)"/>
<circle cx="645.0" cy="580.0" r="4.2" fill="#F7C744" opacity="0.86"/>
<text x="820.0" y="601.0" text-anchor="middle" font-size="12" font-family="Arial, Helvetica, sans-serif" font-weight="600" fill="#162033" >Select feature groups</text>
</g>
<g class="node" data-node="model_fit" style="cursor:pointer">
<rect x="237.0" y="750.0" width="378.0" height="62.0" rx="10" fill="#FFFFFF" stroke="#9FB6C4" stroke-width="1.45" filter="url(#softShadow)"/>
<circle cx="251.0" cy="764.0" r="4.2" fill="#F7C744" opacity="0.86"/>
<text x="426.0" y="785.0" text-anchor="middle" font-size="12" font-family="Arial, Helvetica, sans-serif" font-weight="600" fill="#162033" >Fit interpretable model</text>
</g>
<g class="node" data-node="model_uncertainty" style="cursor:pointer">
<rect x="631.0" y="750.0" width="378.0" height="62.0" rx="10" fill="#FFFFFF" stroke="#9FB6C4" stroke-width="1.45" filter="url(#softShadow)"/>
<circle cx="645.0" cy="764.0" r="4.2" fill="#F7C744" opacity="0.86"/>
<text x="820.0" y="785.0" text-anchor="middle" font-size="12" font-family="Arial, Helvetica, sans-serif" font-weight="600" fill="#162033" >Label uncertainty</text>
</g>
<g class="node" data-node="validation_cases" style="cursor:pointer">
<rect x="237.0" y="934.0" width="378.0" height="62.0" rx="10" fill="#FFFFFF" stroke="#9FB6C4" stroke-width="1.45" filter="url(#softShadow)"/>
<circle cx="251.0" cy="948.0" r="4.2" fill="#F7C744" opacity="0.86"/>
<text x="426.0" y="969.0" text-anchor="middle" font-size="12" font-family="Arial, Helvetica, sans-serif" font-weight="600" fill="#162033" >Validate on fault cases</text>
</g>
<g class="node" data-node="validation_review" style="cursor:pointer">
<rect x="631.0" y="934.0" width="378.0" height="62.0" rx="10" fill="#FFFFFF" stroke="#9FB6C4" stroke-width="1.45" filter="url(#softShadow)"/>
<circle cx="645.0" cy="948.0" r="4.2" fill="#F7C744" opacity="0.86"/>
<text x="820.0" y="969.0" text-anchor="middle" font-size="12" font-family="Arial, Helvetica, sans-serif" font-weight="600" fill="#162033" >Review feature ablation</text>
</g>
<g class="node" data-node="output_priority" style="cursor:pointer">
<rect x="237.0" y="1118.0" width="772.0" height="62.0" rx="10" fill="#FFFFFF" stroke="#9FB6C4" stroke-width="1.45" filter="url(#softShadow)"/>
<circle cx="251.0" cy="1132.0" r="4.2" fill="#F7C744" opacity="0.86"/>
<text x="623.0" y="1153.0" text-anchor="middle" font-size="12" font-family="Arial, Helvetica, sans-serif" font-weight="600" fill="#162033" >Output inspection priority</text>
</g>
</svg>