<svg xmlns="http://www.w3.org/2000/svg" width="1280" height="936" viewBox="0 0 1280 936">
<defs>
<marker id="arrow" viewBox="0 0 10 10" refX="9" refY="5" markerWidth="8" markerHeight="8" orient="auto-start-reverse"><path d="M 0 0 L 10 5 L 0 10 z" fill="#2563EB"/></marker>
<filter id="softShadow" x="-20%" y="-20%" width="140%" height="140%"><feDropShadow dx="0" dy="2" stdDeviation="2" flood-color="#CBD5E1" flood-opacity="0.32"/></filter>
</defs>
<rect width="100%" height="100%" fill="#FFFFFF"/>
<rect x="10.0" y="10.0" width="1260.0" height="916.0" rx="18" fill="none" stroke="#D8E1EA" stroke-width="1.0" />
<rect x="280.0" y="18.0" width="720.0" height="58.0" rx="28" fill="#FFFFFF" stroke="#E0F2FE" stroke-width="2.2" filter="url(#softShadow)"/>
<text x="640.0" y="52.0" text-anchor="middle" font-size="25" font-family="Arial, Helvetica, sans-serif" font-weight="700" fill="#1F2937" >PV Surface Defect Detection Method Route</text>
<text x="640.0" y="92.0" text-anchor="middle" font-size="12" font-family="Arial, Helvetica, sans-serif" font-weight="400" fill="#64748B" >Academic method framework demo generated by tech-route-maker</text>
<rect x="228.0" y="146.0" width="980.0" height="126.0" rx="18" fill="#DBEAFE" stroke="#93C5FD" stroke-width="1.4" opacity="0.70"/>
<rect x="62.0" y="181.0" width="128.0" height="56.0" rx="12" fill="#1D4ED8" stroke="#1D4ED8" stroke-width="1.0" filter="url(#softShadow)"/>
<text x="126.0" y="204.9" text-anchor="middle" font-size="14" font-family="Arial, Helvetica, sans-serif" font-weight="700" fill="#FFFFFF" >Researc</text>
<text x="126.0" y="221.9" text-anchor="middle" font-size="14" font-family="Arial, Helvetica, sans-serif" font-weight="700" fill="#FFFFFF" >h...</text>
<rect x="228.0" y="296.0" width="980.0" height="126.0" rx="18" fill="#E0F2FE" stroke="#93C5FD" stroke-width="1.4" opacity="0.70"/>
<rect x="62.0" y="331.0" width="128.0" height="56.0" rx="12" fill="#1D4ED8" stroke="#1D4ED8" stroke-width="1.0" filter="url(#softShadow)"/>
<text x="126.0" y="354.9" text-anchor="middle" font-size="14" font-family="Arial, Helvetica, sans-serif" font-weight="700" fill="#FFFFFF" >Data</text>
<text x="126.0" y="371.9" text-anchor="middle" font-size="14" font-family="Arial, Helvetica, sans-serif" font-weight="700" fill="#FFFFFF" >Eviden...</text>
<rect x="228.0" y="446.0" width="980.0" height="126.0" rx="18" fill="#EEF2FF" stroke="#93C5FD" stroke-width="1.4" opacity="0.70"/>
<rect x="62.0" y="481.0" width="128.0" height="56.0" rx="12" fill="#1D4ED8" stroke="#1D4ED8" stroke-width="1.0" filter="url(#softShadow)"/>
<text x="126.0" y="504.9" text-anchor="middle" font-size="14" font-family="Arial, Helvetica, sans-serif" font-weight="700" fill="#FFFFFF" >Method</text>
<text x="126.0" y="521.9" text-anchor="middle" font-size="14" font-family="Arial, Helvetica, sans-serif" font-weight="700" fill="#FFFFFF" >Design</text>
<rect x="228.0" y="596.0" width="980.0" height="126.0" rx="18" fill="#ECFDF5" stroke="#93C5FD" stroke-width="1.4" opacity="0.70"/>
<rect x="62.0" y="631.0" width="128.0" height="56.0" rx="12" fill="#1D4ED8" stroke="#1D4ED8" stroke-width="1.0" filter="url(#softShadow)"/>
<text x="126.0" y="654.9" text-anchor="middle" font-size="14" font-family="Arial, Helvetica, sans-serif" font-weight="700" fill="#FFFFFF" >Trainin</text>
<text x="126.0" y="671.9" text-anchor="middle" font-size="14" font-family="Arial, Helvetica, sans-serif" font-weight="700" fill="#FFFFFF" >g...</text>
<rect x="228.0" y="746.0" width="980.0" height="126.0" rx="18" fill="#FFF7ED" stroke="#93C5FD" stroke-width="1.4" opacity="0.70"/>
<rect x="62.0" y="781.0" width="128.0" height="56.0" rx="12" fill="#1D4ED8" stroke="#1D4ED8" stroke-width="1.0" filter="url(#softShadow)"/>
<text x="126.0" y="804.9" text-anchor="middle" font-size="14" font-family="Arial, Helvetica, sans-serif" font-weight="700" fill="#FFFFFF" >Validat</text>
<text x="126.0" y="821.9" text-anchor="middle" font-size="14" font-family="Arial, Helvetica, sans-serif" font-weight="700" fill="#FFFFFF" >ion...</text>
<path d="M 710.0 208.0 C 718.0 208.0, 718.0 208.0, 726.0 208.0" fill="none" stroke="#2563EB" stroke-width="2.1" marker-end="url(#arrow)" opacity="0.72"/>
<rect x="687.0" y="188.0" width="62.0" height="19.0" rx="9" fill="#FFFFFF" stroke="#E7ECF2" stroke-width="0.8" />
<text x="718.0" y="202.0" text-anchor="middle" font-size="9" font-family="Arial, Helvetica, sans-serif" font-weight="600" fill="#64748B" >defines</text>
<path d="M 949.0 238.0 C 949.0 283.0, 410.0 283.0, 410.0 328.0" fill="none" stroke="#2563EB" stroke-width="2.1" marker-end="url(#arrow)" opacity="0.72" stroke-dasharray="6 5"/>
<rect x="648.5" y="263.0" width="62.0" height="19.0" rx="9" fill="#FFFFFF" stroke="#E7ECF2" stroke-width="0.8" />
<text x="679.5" y="277.0" text-anchor="middle" font-size="9" font-family="Arial, Helvetica, sans-serif" font-weight="600" fill="#64748B" >guides</text>
<path d="M 556.0 358.0 C 564.0 358.0, 564.0 358.0, 572.0 358.0" fill="none" stroke="#2563EB" stroke-width="2.1" marker-end="url(#arrow)" opacity="0.72"/>
<rect x="533.0" y="338.0" width="62.0" height="19.0" rx="9" fill="#FFFFFF" stroke="#E7ECF2" stroke-width="0.8" />
<text x="564.0" y="352.0" text-anchor="middle" font-size="9" font-family="Arial, Helvetica, sans-serif" font-weight="600" fill="#64748B" >aligns</text>
<path d="M 864.0 358.0 C 872.0 358.0, 872.0 358.0, 880.0 358.0" fill="none" stroke="#2563EB" stroke-width="2.1" marker-end="url(#arrow)" opacity="0.72"/>
<rect x="841.0" y="338.0" width="62.0" height="19.0" rx="9" fill="#FFFFFF" stroke="#E7ECF2" stroke-width="0.8" />
<text x="872.0" y="352.0" text-anchor="middle" font-size="9" font-family="Arial, Helvetica, sans-serif" font-weight="600" fill="#64748B" >prepares</text>
<path d="M 1026.0 388.0 C 1026.0 433.0, 410.0 433.0, 410.0 478.0" fill="none" stroke="#2563EB" stroke-width="2.1" marker-end="url(#arrow)" opacity="0.72" stroke-dasharray="6 5"/>
<rect x="687.0" y="413.0" width="62.0" height="19.0" rx="9" fill="#FFFFFF" stroke="#E7ECF2" stroke-width="0.8" />
<text x="718.0" y="427.0" text-anchor="middle" font-size="9" font-family="Arial, Helvetica, sans-serif" font-weight="600" fill="#64748B" >feeds</text>
<path d="M 556.0 508.0 C 564.0 508.0, 564.0 508.0, 572.0 508.0" fill="none" stroke="#2563EB" stroke-width="2.1" marker-end="url(#arrow)" opacity="0.72"/>
<rect x="533.0" y="488.0" width="62.0" height="19.0" rx="9" fill="#FFFFFF" stroke="#E7ECF2" stroke-width="0.8" />
<text x="564.0" y="502.0" text-anchor="middle" font-size="9" font-family="Arial, Helvetica, sans-serif" font-weight="600" fill="#64748B" >extends</text>
<path d="M 864.0 508.0 C 872.0 508.0, 872.0 508.0, 880.0 508.0" fill="none" stroke="#2563EB" stroke-width="2.1" marker-end="url(#arrow)" opacity="0.72"/>
<rect x="841.0" y="488.0" width="62.0" height="19.0" rx="9" fill="#FFFFFF" stroke="#E7ECF2" stroke-width="0.8" />
<text x="872.0" y="502.0" text-anchor="middle" font-size="9" font-family="Arial, Helvetica, sans-serif" font-weight="600" fill="#64748B" >enhances</text>
<path d="M 1026.0 538.0 C 1026.0 583.0, 410.0 583.0, 410.0 628.0" fill="none" stroke="#2563EB" stroke-width="2.1" marker-end="url(#arrow)" opacity="0.72" stroke-dasharray="6 5"/>
<rect x="687.0" y="563.0" width="62.0" height="19.0" rx="9" fill="#FFFFFF" stroke="#E7ECF2" stroke-width="0.8" />
<text x="718.0" y="577.0" text-anchor="middle" font-size="9" font-family="Arial, Helvetica, sans-serif" font-weight="600" fill="#64748B" >optimizes</text>
<path d="M 556.0 658.0 C 564.0 658.0, 564.0 658.0, 572.0 658.0" fill="none" stroke="#2563EB" stroke-width="2.1" marker-end="url(#arrow)" opacity="0.72"/>
<rect x="533.0" y="638.0" width="62.0" height="19.0" rx="9" fill="#FFFFFF" stroke="#E7ECF2" stroke-width="0.8" />
<text x="564.0" y="652.0" text-anchor="middle" font-size="9" font-family="Arial, Helvetica, sans-serif" font-weight="600" fill="#64748B" >tests</text>
<path d="M 864.0 658.0 C 872.0 658.0, 872.0 658.0, 880.0 658.0" fill="none" stroke="#2563EB" stroke-width="2.1" marker-end="url(#arrow)" opacity="0.72"/>
<rect x="841.0" y="638.0" width="62.0" height="19.0" rx="9" fill="#FFFFFF" stroke="#E7ECF2" stroke-width="0.8" />
<text x="872.0" y="652.0" text-anchor="middle" font-size="9" font-family="Arial, Helvetica, sans-serif" font-weight="600" fill="#64748B" >selects</text>
<path d="M 1026.0 688.0 C 1026.0 733.0, 410.0 733.0, 410.0 778.0" fill="none" stroke="#2563EB" stroke-width="2.1" marker-end="url(#arrow)" opacity="0.72" stroke-dasharray="6 5"/>
<rect x="687.0" y="713.0" width="62.0" height="19.0" rx="9" fill="#FFFFFF" stroke="#E7ECF2" stroke-width="0.8" />
<text x="718.0" y="727.0" text-anchor="middle" font-size="9" font-family="Arial, Helvetica, sans-serif" font-weight="600" fill="#64748B" >evaluates</text>
<path d="M 556.0 808.0 C 564.0 808.0, 564.0 808.0, 572.0 808.0" fill="none" stroke="#2563EB" stroke-width="2.1" marker-end="url(#arrow)" opacity="0.72"/>
<rect x="533.0" y="788.0" width="62.0" height="19.0" rx="9" fill="#FFFFFF" stroke="#E7ECF2" stroke-width="0.8" />
<text x="564.0" y="802.0" text-anchor="middle" font-size="9" font-family="Arial, Helvetica, sans-serif" font-weight="600" fill="#64748B" >explains</text>
<path d="M 864.0 808.0 C 872.0 808.0, 872.0 808.0, 880.0 808.0" fill="none" stroke="#2563EB" stroke-width="2.1" marker-end="url(#arrow)" opacity="0.72"/>
<rect x="841.0" y="788.0" width="62.0" height="19.0" rx="9" fill="#FFFFFF" stroke="#E7ECF2" stroke-width="0.8" />
<text x="872.0" y="802.0" text-anchor="middle" font-size="9" font-family="Arial, Helvetica, sans-serif" font-weight="600" fill="#64748B" >reports</text>
<g class="node" data-node="goal_task" style="cursor:pointer">
<rect x="264.0" y="178.0" width="446.0" height="60.0" rx="10" fill="#FFFFFF" stroke="#60A5FA" stroke-width="1.45" filter="url(#softShadow)"/>
<circle cx="278.0" cy="192.0" r="4.2" fill="#0F766E" opacity="0.86"/>
<text x="487.0" y="212.0" text-anchor="middle" font-size="12" font-family="Arial, Helvetica, sans-serif" font-weight="600" fill="#1F2937" >Define defect task</text>
</g>
<g class="node" data-node="goal_metric" style="cursor:pointer">
<rect x="726.0" y="178.0" width="446.0" height="60.0" rx="10" fill="#FFFFFF" stroke="#60A5FA" stroke-width="1.45" filter="url(#softShadow)"/>
<circle cx="740.0" cy="192.0" r="4.2" fill="#0F766E" opacity="0.86"/>
<text x="949.0" y="212.0" text-anchor="middle" font-size="12" font-family="Arial, Helvetica, sans-serif" font-weight="600" fill="#1F2937" >Set evaluation metrics</text>
</g>
<g class="node" data-node="data_collect" style="cursor:pointer">
<rect x="264.0" y="328.0" width="292.0" height="60.0" rx="10" fill="#FFFFFF" stroke="#60A5FA" stroke-width="1.45" filter="url(#softShadow)"/>
<circle cx="278.0" cy="342.0" r="4.2" fill="#0F766E" opacity="0.86"/>
<text x="410.0" y="362.0" text-anchor="middle" font-size="12" font-family="Arial, Helvetica, sans-serif" font-weight="600" fill="#1F2937" >Collect RGB and IR images</text>
</g>
<g class="node" data-node="data_align" style="cursor:pointer">
<rect x="572.0" y="328.0" width="292.0" height="60.0" rx="10" fill="#FFFFFF" stroke="#60A5FA" stroke-width="1.45" filter="url(#softShadow)"/>
<circle cx="586.0" cy="342.0" r="4.2" fill="#0F766E" opacity="0.86"/>
<text x="718.0" y="362.0" text-anchor="middle" font-size="12" font-family="Arial, Helvetica, sans-serif" font-weight="600" fill="#1F2937" >Align and annotate defects</text>
</g>
<g class="node" data-node="data_split" style="cursor:pointer">
<rect x="880.0" y="328.0" width="292.0" height="60.0" rx="10" fill="#FFFFFF" stroke="#60A5FA" stroke-width="1.45" filter="url(#softShadow)"/>
<circle cx="894.0" cy="342.0" r="4.2" fill="#0F766E" opacity="0.86"/>
<text x="1026.0" y="362.0" text-anchor="middle" font-size="12" font-family="Arial, Helvetica, sans-serif" font-weight="600" fill="#1F2937" >Prepare train test sets</text>
</g>
<g class="node" data-node="method_baseline" style="cursor:pointer">
<rect x="264.0" y="478.0" width="292.0" height="60.0" rx="10" fill="#FFFFFF" stroke="#60A5FA" stroke-width="1.45" filter="url(#softShadow)"/>
<circle cx="278.0" cy="492.0" r="4.2" fill="#0F766E" opacity="0.86"/>
<text x="410.0" y="512.0" text-anchor="middle" font-size="12" font-family="Arial, Helvetica, sans-serif" font-weight="600" fill="#1F2937" >Build baseline detector</text>
</g>
<g class="node" data-node="method_fusion" style="cursor:pointer">
<rect x="572.0" y="478.0" width="292.0" height="60.0" rx="10" fill="#FFFFFF" stroke="#60A5FA" stroke-width="1.45" filter="url(#softShadow)"/>
<circle cx="586.0" cy="492.0" r="4.2" fill="#0F766E" opacity="0.86"/>
<text x="718.0" y="512.0" text-anchor="middle" font-size="12" font-family="Arial, Helvetica, sans-serif" font-weight="600" fill="#1F2937" >Fuse multimodal features</text>
</g>
<g class="node" data-node="method_attention" style="cursor:pointer">
<rect x="880.0" y="478.0" width="292.0" height="60.0" rx="10" fill="#FFFFFF" stroke="#60A5FA" stroke-width="1.45" filter="url(#softShadow)"/>
<circle cx="894.0" cy="492.0" r="4.2" fill="#0F766E" opacity="0.86"/>
<text x="1026.0" y="512.0" text-anchor="middle" font-size="12" font-family="Arial, Helvetica, sans-serif" font-weight="600" fill="#1F2937" >Enhance weak regions</text>
</g>
<g class="node" data-node="training_loss" style="cursor:pointer">
<rect x="264.0" y="628.0" width="292.0" height="60.0" rx="10" fill="#FFFFFF" stroke="#60A5FA" stroke-width="1.45" filter="url(#softShadow)"/>
<circle cx="278.0" cy="642.0" r="4.2" fill="#0F766E" opacity="0.86"/>
<text x="410.0" y="662.0" text-anchor="middle" font-size="12" font-family="Arial, Helvetica, sans-serif" font-weight="600" fill="#1F2937" >Optimize detection losses</text>
</g>
<g class="node" data-node="training_ablation" style="cursor:pointer">
<rect x="572.0" y="628.0" width="292.0" height="60.0" rx="10" fill="#FFFFFF" stroke="#60A5FA" stroke-width="1.45" filter="url(#softShadow)"/>
<circle cx="586.0" cy="642.0" r="4.2" fill="#0F766E" opacity="0.86"/>
<text x="718.0" y="662.0" text-anchor="middle" font-size="12" font-family="Arial, Helvetica, sans-serif" font-weight="600" fill="#1F2937" >Run ablation studies</text>
</g>
<g class="node" data-node="training_infer" style="cursor:pointer">
<rect x="880.0" y="628.0" width="292.0" height="60.0" rx="10" fill="#FFFFFF" stroke="#60A5FA" stroke-width="1.45" filter="url(#softShadow)"/>
<circle cx="894.0" cy="642.0" r="4.2" fill="#0F766E" opacity="0.86"/>
<text x="1026.0" y="662.0" text-anchor="middle" font-size="12" font-family="Arial, Helvetica, sans-serif" font-weight="600" fill="#1F2937" >Infer defect candidates</text>
</g>
<g class="node" data-node="output_metrics" style="cursor:pointer">
<rect x="264.0" y="778.0" width="292.0" height="60.0" rx="10" fill="#FFFFFF" stroke="#60A5FA" stroke-width="1.45" filter="url(#softShadow)"/>
<circle cx="278.0" cy="792.0" r="4.2" fill="#0F766E" opacity="0.86"/>
<text x="410.0" y="812.0" text-anchor="middle" font-size="12" font-family="Arial, Helvetica, sans-serif" font-weight="600" fill="#1F2937" >Report quantitative gains</text>
</g>
<g class="node" data-node="output_visual" style="cursor:pointer">
<rect x="572.0" y="778.0" width="292.0" height="60.0" rx="10" fill="#FFFFFF" stroke="#60A5FA" stroke-width="1.45" filter="url(#softShadow)"/>
<circle cx="586.0" cy="792.0" r="4.2" fill="#0F766E" opacity="0.86"/>
<text x="718.0" y="812.0" text-anchor="middle" font-size="12" font-family="Arial, Helvetica, sans-serif" font-weight="600" fill="#1F2937" >Explain visual results</text>
</g>
<g class="node" data-node="output_report" style="cursor:pointer">
<rect x="880.0" y="778.0" width="292.0" height="60.0" rx="10" fill="#FFFFFF" stroke="#60A5FA" stroke-width="1.45" filter="url(#softShadow)"/>
<circle cx="894.0" cy="792.0" r="4.2" fill="#0F766E" opacity="0.86"/>
<text x="1026.0" y="812.0" text-anchor="middle" font-size="12" font-family="Arial, Helvetica, sans-serif" font-weight="600" fill="#1F2937" >Generate defect report</text>
</g>
</svg>