<svg xmlns="http://www.w3.org/2000/svg" width="1750" height="396" viewBox="0 0 1750 396">
<defs>
<marker id="arrow" viewBox="0 0 10 10" refX="9" refY="5" markerWidth="8" markerHeight="8" orient="auto-start-reverse"><path d="M 0 0 L 10 5 L 0 10 z" fill="#315C61"/></marker>
</defs>
<rect width="100%" height="100%" fill="#FFFFFF"/>
<text x="875.0" y="36" text-anchor="middle" font-size="24" font-family="Arial, Helvetica, sans-serif" font-weight="700" fill="#17201D">多模态光伏缺陷检测技术路线图</text>
<text x="875.0" y="60" text-anchor="middle" font-size="13" font-family="Arial, Helvetica, sans-serif" fill="#59636A">Academic method framework demo generated by tech-route-maker</text>
<rect x="56.0" y="134.0" width="228.0" height="206.0" rx="12" fill="#F8FAF9" stroke="#B8C7C1" stroke-width="1.5"/>
<rect x="56.0" y="134.0" width="228.0" height="38" rx="12" fill="#315C61"/>
<text x="170.0" y="158.0" text-anchor="middle" font-size="14" font-family="Arial, Helvetica, sans-serif" font-weight="700" fill="#FFFFFF">研究目标</text>
<rect x="338.0" y="134.0" width="228.0" height="206.0" rx="12" fill="#F8FAF9" stroke="#B8C7C1" stroke-width="1.5"/>
<rect x="338.0" y="134.0" width="228.0" height="38" rx="12" fill="#315C61"/>
<text x="452.0" y="158.0" text-anchor="middle" font-size="14" font-family="Arial, Helvetica, sans-serif" font-weight="700" fill="#FFFFFF">数据构建</text>
<rect x="620.0" y="134.0" width="228.0" height="206.0" rx="12" fill="#F8FAF9" stroke="#B8C7C1" stroke-width="1.5"/>
<rect x="620.0" y="134.0" width="228.0" height="38" rx="12" fill="#315C61"/>
<text x="734.0" y="158.0" text-anchor="middle" font-size="14" font-family="Arial, Helvetica, sans-serif" font-weight="700" fill="#FFFFFF">预处理</text>
<rect x="902.0" y="134.0" width="228.0" height="206.0" rx="12" fill="#F8FAF9" stroke="#B8C7C1" stroke-width="1.5"/>
<rect x="902.0" y="134.0" width="228.0" height="38" rx="12" fill="#315C61"/>
<text x="1016.0" y="158.0" text-anchor="middle" font-size="14" font-family="Arial, Helvetica, sans-serif" font-weight="700" fill="#FFFFFF">核心方法</text>
<rect x="1184.0" y="134.0" width="228.0" height="206.0" rx="12" fill="#F8FAF9" stroke="#B8C7C1" stroke-width="1.5"/>
<rect x="1184.0" y="134.0" width="228.0" height="38" rx="12" fill="#315C61"/>
<text x="1298.0" y="158.0" text-anchor="middle" font-size="14" font-family="Arial, Helvetica, sans-serif" font-weight="700" fill="#FFFFFF">训练推理</text>
<rect x="1466.0" y="134.0" width="228.0" height="206.0" rx="12" fill="#F8FAF9" stroke="#B8C7C1" stroke-width="1.5"/>
<rect x="1466.0" y="134.0" width="228.0" height="38" rx="12" fill="#315C61"/>
<text x="1580.0" y="158.0" text-anchor="middle" font-size="14" font-family="Arial, Helvetica, sans-serif" font-weight="700" fill="#FFFFFF">验证输出</text>
<line x1="170.0" y1="219.0" x2="452.0" y2="219.0" stroke="#315C61" stroke-width="2" marker-end="url(#arrow)" opacity="0.78"/>
<text x="311.0" y="213.0" text-anchor="middle" font-size="10" font-family="Arial, Helvetica, sans-serif" fill="#59636A">定义输入需求</text>
<line x1="452.0" y1="219.0" x2="452.0" y2="293.0" stroke="#315C61" stroke-width="2" marker-end="url(#arrow)" opacity="0.78"/>
<text x="452.0" y="250.0" text-anchor="middle" font-size="10" font-family="Arial, Helvetica, sans-serif" fill="#59636A">质量筛选</text>
<line x1="452.0" y1="293.0" x2="734.0" y2="219.0" stroke="#315C61" stroke-width="2" marker-end="url(#arrow)" opacity="0.78"/>
<text x="593.0" y="250.0" text-anchor="middle" font-size="10" font-family="Arial, Helvetica, sans-serif" fill="#59636A">保留有效样本</text>
<line x1="734.0" y1="219.0" x2="734.0" y2="293.0" stroke="#315C61" stroke-width="2" marker-end="url(#arrow)" opacity="0.78"/>
<text x="734.0" y="250.0" text-anchor="middle" font-size="10" font-family="Arial, Helvetica, sans-serif" fill="#59636A">形成训练样本</text>
<line x1="734.0" y1="293.0" x2="1016.0" y2="219.0" stroke="#315C61" stroke-width="2" marker-end="url(#arrow)" opacity="0.78"/>
<text x="875.0" y="250.0" text-anchor="middle" font-size="10" font-family="Arial, Helvetica, sans-serif" fill="#59636A">输入基线模型</text>
<line x1="1016.0" y1="219.0" x2="1016.0" y2="293.0" stroke="#315C61" stroke-width="2" marker-end="url(#arrow)" opacity="0.78"/>
<text x="1016.0" y="250.0" text-anchor="middle" font-size="10" font-family="Arial, Helvetica, sans-serif" fill="#59636A">融合改进</text>
<line x1="1016.0" y1="293.0" x2="1298.0" y2="219.0" stroke="#315C61" stroke-width="2" marker-end="url(#arrow)" opacity="0.78"/>
<text x="1157.0" y="250.0" text-anchor="middle" font-size="10" font-family="Arial, Helvetica, sans-serif" fill="#59636A">训练优化</text>
<line x1="1298.0" y1="219.0" x2="1298.0" y2="293.0" stroke="#315C61" stroke-width="2" marker-end="url(#arrow)" opacity="0.78"/>
<text x="1298.0" y="250.0" text-anchor="middle" font-size="10" font-family="Arial, Helvetica, sans-serif" fill="#59636A">模型推理</text>
<line x1="1298.0" y1="293.0" x2="1580.0" y2="219.0" stroke="#315C61" stroke-width="2" marker-end="url(#arrow)" opacity="0.78"/>
<text x="1439.0" y="250.0" text-anchor="middle" font-size="10" font-family="Arial, Helvetica, sans-serif" fill="#59636A">结果评估</text>
<line x1="1580.0" y1="219.0" x2="1580.0" y2="293.0" stroke="#315C61" stroke-width="2" marker-end="url(#arrow)" opacity="0.78"/>
<text x="1580.0" y="250.0" text-anchor="middle" font-size="10" font-family="Arial, Helvetica, sans-serif" fill="#59636A">支撑应用</text>
<g class="node" data-node="objective_goal" style="cursor:pointer">
<rect x="81.0" y="190.0" width="178.0" height="58.0" rx="9" fill="#FFFFFF" stroke="#8BAAA5" stroke-width="1.6"/>
<text x="170.0" y="224.0" text-anchor="middle" font-size="12" font-family="Arial, Helvetica, sans-serif" fill="#17201D">明确检测目标</text>
</g>
<g class="node" data-node="data_capture" style="cursor:pointer">
<rect x="363.0" y="190.0" width="178.0" height="58.0" rx="9" fill="#FFFFFF" stroke="#8BAAA5" stroke-width="1.6"/>
<text x="452.0" y="224.0" text-anchor="middle" font-size="12" font-family="Arial, Helvetica, sans-serif" fill="#17201D">采集多模态图像</text>
</g>
<g class="node" data-node="data_screen" style="cursor:pointer">
<rect x="363.0" y="264.0" width="178.0" height="58.0" rx="9" fill="#FFFFFF" stroke="#8BAAA5" stroke-width="1.6"/>
<text x="452.0" y="298.0" text-anchor="middle" font-size="12" font-family="Arial, Helvetica, sans-serif" fill="#17201D">图像质量筛选</text>
</g>
<g class="node" data-node="preprocess_align" style="cursor:pointer">
<rect x="645.0" y="190.0" width="178.0" height="58.0" rx="9" fill="#FFFFFF" stroke="#8BAAA5" stroke-width="1.6"/>
<text x="734.0" y="224.0" text-anchor="middle" font-size="12" font-family="Arial, Helvetica, sans-serif" fill="#17201D">图像配准与标注</text>
</g>
<g class="node" data-node="preprocess_split" style="cursor:pointer">
<rect x="645.0" y="264.0" width="178.0" height="58.0" rx="9" fill="#FFFFFF" stroke="#8BAAA5" stroke-width="1.6"/>
<text x="734.0" y="298.0" text-anchor="middle" font-size="12" font-family="Arial, Helvetica, sans-serif" fill="#17201D">增强并划分数据</text>
</g>
<g class="node" data-node="method_baseline" style="cursor:pointer">
<rect x="927.0" y="190.0" width="178.0" height="58.0" rx="9" fill="#FFFFFF" stroke="#8BAAA5" stroke-width="1.6"/>
<text x="1016.0" y="224.0" text-anchor="middle" font-size="12" font-family="Arial, Helvetica, sans-serif" fill="#17201D">建立基线检测器</text>
</g>
<g class="node" data-node="method_fusion" style="cursor:pointer">
<rect x="927.0" y="264.0" width="178.0" height="58.0" rx="9" fill="#FFFFFF" stroke="#8BAAA5" stroke-width="1.6"/>
<text x="1016.0" y="298.0" text-anchor="middle" font-size="12" font-family="Arial, Helvetica, sans-serif" fill="#17201D">构建特征融合检测器</text>
</g>
<g class="node" data-node="train_supervised" style="cursor:pointer">
<rect x="1209.0" y="190.0" width="178.0" height="58.0" rx="9" fill="#FFFFFF" stroke="#8BAAA5" stroke-width="1.6"/>
<text x="1298.0" y="224.0" text-anchor="middle" font-size="12" font-family="Arial, Helvetica, sans-serif" fill="#17201D">训练与指标优化</text>
</g>
<g class="node" data-node="infer_filter" style="cursor:pointer">
<rect x="1209.0" y="264.0" width="178.0" height="58.0" rx="9" fill="#FFFFFF" stroke="#8BAAA5" stroke-width="1.6"/>
<text x="1298.0" y="298.0" text-anchor="middle" font-size="12" font-family="Arial, Helvetica, sans-serif" fill="#17201D">推理并筛选结果</text>
</g>
<g class="node" data-node="eval_compare" style="cursor:pointer">
<rect x="1491.0" y="190.0" width="178.0" height="58.0" rx="9" fill="#FFFFFF" stroke="#8BAAA5" stroke-width="1.6"/>
<text x="1580.0" y="224.0" text-anchor="middle" font-size="12" font-family="Arial, Helvetica, sans-serif" fill="#17201D">对比与消融验证</text>
</g>
<g class="node" data-node="output_report" style="cursor:pointer">
<rect x="1491.0" y="264.0" width="178.0" height="58.0" rx="9" fill="#FFFFFF" stroke="#8BAAA5" stroke-width="1.6"/>
<text x="1580.0" y="298.0" text-anchor="middle" font-size="12" font-family="Arial, Helvetica, sans-serif" fill="#17201D">输出缺陷报告</text>
</g>
</svg>