<svg xmlns="http://www.w3.org/2000/svg" width="1280" height="360" viewBox="0 0 1280 360">
<rect width="100%" height="100%" fill="#FFFFFF"/>
<rect x="18" y="18" width="1244" height="324" rx="22" fill="#FFFFFF" stroke="#D8E1EA" stroke-width="1" />
<text x="640" y="70" text-anchor="middle" font-family="Arial, Helvetica, sans-serif" font-size="32" font-weight="700" fill="#172033">tech-route-maker</text>
<text x="640" y="106" text-anchor="middle" font-family="Arial, Helvetica, sans-serif" font-size="15" font-weight="400" fill="#59636A">Source-grounded editable technical route diagrams for academic and campaign work</text>
<rect x="70" y="160" width="245" height="270" rx="16" fill="#E8F3F1" stroke="#C8D4E0" stroke-width="1.4" />
<rect x="88" y="178" width="209" height="36" rx="10" fill="#315C61" stroke="#315C61" stroke-width="1" />
<text x="192.5" y="202" text-anchor="middle" font-family="Arial, Helvetica, sans-serif" font-size="15" font-weight="700" fill="#FFFFFF">Academic Method</text>
<rect x="100" y="242" width="185" height="30" rx="8" fill="#FFFFFF" stroke="#9DB3C5" stroke-width="1.2" />
<text x="192.5" y="262" text-anchor="middle" font-family="Arial, Helvetica, sans-serif" font-size="12" font-weight="600" fill="#172033">Goal</text>
<path d="M 192.5 272 L 192.5 284" stroke="#315C61" stroke-width="1.6" marker-end="url(#arrow0)"/>
<rect x="100" y="286" width="185" height="30" rx="8" fill="#FFFFFF" stroke="#9DB3C5" stroke-width="1.2" />
<text x="192.5" y="306" text-anchor="middle" font-family="Arial, Helvetica, sans-serif" font-size="12" font-weight="600" fill="#172033">Data</text>
<path d="M 192.5 316 L 192.5 328" stroke="#315C61" stroke-width="1.6" marker-end="url(#arrow0)"/>
<rect x="100" y="330" width="185" height="30" rx="8" fill="#FFFFFF" stroke="#9DB3C5" stroke-width="1.2" />
<text x="192.5" y="350" text-anchor="middle" font-family="Arial, Helvetica, sans-serif" font-size="12" font-weight="600" fill="#172033">Method</text>
<path d="M 192.5 360 L 192.5 372" stroke="#315C61" stroke-width="1.6" marker-end="url(#arrow0)"/>
<rect x="100" y="374" width="185" height="30" rx="8" fill="#FFFFFF" stroke="#9DB3C5" stroke-width="1.2" />
<text x="192.5" y="394" text-anchor="middle" font-family="Arial, Helvetica, sans-serif" font-size="12" font-weight="600" fill="#172033">Validation</text>
<defs><marker id="arrow0" viewBox="0 0 10 10" refX="8" refY="5" markerWidth="6" markerHeight="6" orient="auto"><path d="M 0 0 L 10 5 L 0 10 z" fill="#315C61"/></marker></defs>
<rect x="343" y="160" width="245" height="270" rx="16" fill="#F7E0E8" stroke="#C8D4E0" stroke-width="1.4" />
<rect x="361" y="178" width="209" height="36" rx="10" fill="#7BCFD0" stroke="#7BCFD0" stroke-width="1" />
<text x="465.5" y="202" text-anchor="middle" font-family="Arial, Helvetica, sans-serif" font-size="15" font-weight="700" fill="#FFFFFF">Proposal Route</text>
<rect x="373" y="242" width="185" height="30" rx="8" fill="#FFFFFF" stroke="#9DB3C5" stroke-width="1.2" />
<text x="465.5" y="262" text-anchor="middle" font-family="Arial, Helvetica, sans-serif" font-size="12" font-weight="600" fill="#172033">Objective</text>
<path d="M 465.5 272 L 465.5 284" stroke="#7BCFD0" stroke-width="1.6" marker-end="url(#arrow1)"/>
<rect x="373" y="286" width="185" height="30" rx="8" fill="#FFFFFF" stroke="#9DB3C5" stroke-width="1.2" />
<text x="465.5" y="306" text-anchor="middle" font-family="Arial, Helvetica, sans-serif" font-size="12" font-weight="600" fill="#172033">Content</text>
<path d="M 465.5 316 L 465.5 328" stroke="#7BCFD0" stroke-width="1.6" marker-end="url(#arrow1)"/>
<rect x="373" y="330" width="185" height="30" rx="8" fill="#FFFFFF" stroke="#9DB3C5" stroke-width="1.2" />
<text x="465.5" y="350" text-anchor="middle" font-family="Arial, Helvetica, sans-serif" font-size="12" font-weight="600" fill="#172033">Technology</text>
<path d="M 465.5 360 L 465.5 372" stroke="#7BCFD0" stroke-width="1.6" marker-end="url(#arrow1)"/>
<rect x="373" y="374" width="185" height="30" rx="8" fill="#FFFFFF" stroke="#9DB3C5" stroke-width="1.2" />
<text x="465.5" y="394" text-anchor="middle" font-family="Arial, Helvetica, sans-serif" font-size="12" font-weight="600" fill="#172033">Output</text>
<defs><marker id="arrow1" viewBox="0 0 10 10" refX="8" refY="5" markerWidth="6" markerHeight="6" orient="auto"><path d="M 0 0 L 10 5 L 0 10 z" fill="#7BCFD0"/></marker></defs>
<rect x="616" y="160" width="245" height="270" rx="16" fill="#F3F4F6" stroke="#C8D4E0" stroke-width="1.4" />
<rect x="634" y="178" width="209" height="36" rx="10" fill="#374151" stroke="#374151" stroke-width="1" />
<text x="738.5" y="202" text-anchor="middle" font-family="Arial, Helvetica, sans-serif" font-size="15" font-weight="700" fill="#FFFFFF">System Route</text>
<rect x="646" y="242" width="185" height="30" rx="8" fill="#FFFFFF" stroke="#9DB3C5" stroke-width="1.2" />
<text x="738.5" y="262" text-anchor="middle" font-family="Arial, Helvetica, sans-serif" font-size="12" font-weight="600" fill="#172033">Input</text>
<path d="M 738.5 272 L 738.5 284" stroke="#374151" stroke-width="1.6" marker-end="url(#arrow2)"/>
<rect x="646" y="286" width="185" height="30" rx="8" fill="#FFFFFF" stroke="#9DB3C5" stroke-width="1.2" />
<text x="738.5" y="306" text-anchor="middle" font-family="Arial, Helvetica, sans-serif" font-size="12" font-weight="600" fill="#172033">Data</text>
<path d="M 738.5 316 L 738.5 328" stroke="#374151" stroke-width="1.6" marker-end="url(#arrow2)"/>
<rect x="646" y="330" width="185" height="30" rx="8" fill="#FFFFFF" stroke="#9DB3C5" stroke-width="1.2" />
<text x="738.5" y="350" text-anchor="middle" font-family="Arial, Helvetica, sans-serif" font-size="12" font-weight="600" fill="#172033">Service</text>
<path d="M 738.5 360 L 738.5 372" stroke="#374151" stroke-width="1.6" marker-end="url(#arrow2)"/>
<rect x="646" y="374" width="185" height="30" rx="8" fill="#FFFFFF" stroke="#9DB3C5" stroke-width="1.2" />
<text x="738.5" y="394" text-anchor="middle" font-family="Arial, Helvetica, sans-serif" font-size="12" font-weight="600" fill="#172033">Release</text>
<defs><marker id="arrow2" viewBox="0 0 10 10" refX="8" refY="5" markerWidth="6" markerHeight="6" orient="auto"><path d="M 0 0 L 10 5 L 0 10 z" fill="#374151"/></marker></defs>
<rect x="889" y="160" width="245" height="270" rx="16" fill="#FFE4E6" stroke="#C8D4E0" stroke-width="1.4" />
<rect x="907" y="178" width="209" height="36" rx="10" fill="#E11D48" stroke="#E11D48" stroke-width="1" />
<text x="1011.5" y="202" text-anchor="middle" font-family="Arial, Helvetica, sans-serif" font-size="15" font-weight="700" fill="#FFFFFF">Campaign Map</text>
<rect x="919" y="242" width="185" height="30" rx="8" fill="#FFFFFF" stroke="#9DB3C5" stroke-width="1.2" />
<text x="1011.5" y="262" text-anchor="middle" font-family="Arial, Helvetica, sans-serif" font-size="12" font-weight="600" fill="#172033">Audience</text>
<path d="M 1011.5 272 L 1011.5 284" stroke="#E11D48" stroke-width="1.6" marker-end="url(#arrow3)"/>
<rect x="919" y="286" width="185" height="30" rx="8" fill="#FFFFFF" stroke="#9DB3C5" stroke-width="1.2" />
<text x="1011.5" y="306" text-anchor="middle" font-family="Arial, Helvetica, sans-serif" font-size="12" font-weight="600" fill="#172033">Message</text>
<path d="M 1011.5 316 L 1011.5 328" stroke="#E11D48" stroke-width="1.6" marker-end="url(#arrow3)"/>
<rect x="919" y="330" width="185" height="30" rx="8" fill="#FFFFFF" stroke="#9DB3C5" stroke-width="1.2" />
<text x="1011.5" y="350" text-anchor="middle" font-family="Arial, Helvetica, sans-serif" font-size="12" font-weight="600" fill="#172033">Channels</text>
<path d="M 1011.5 360 L 1011.5 372" stroke="#E11D48" stroke-width="1.6" marker-end="url(#arrow3)"/>
<rect x="919" y="374" width="185" height="30" rx="8" fill="#FFFFFF" stroke="#9DB3C5" stroke-width="1.2" />
<text x="1011.5" y="394" text-anchor="middle" font-family="Arial, Helvetica, sans-serif" font-size="12" font-weight="600" fill="#172033">KPI</text>
<defs><marker id="arrow3" viewBox="0 0 10 10" refX="8" refY="5" markerWidth="6" markerHeight="6" orient="auto"><path d="M 0 0 L 10 5 L 0 10 z" fill="#E11D48"/></marker></defs>
<text x="640" y="312" text-anchor="middle" font-family="Arial, Helvetica, sans-serif" font-size="15" font-weight="600" fill="#59636A">Editable SVG · Native PPTX shapes · Draw.io cells · HTML preview</text>
</svg>