<svg xmlns="http://www.w3.org/2000/svg" width="1440" height="420" viewBox="0 0 1440 420" role="img" aria-label="tech-route-maker banner">
  <defs>
    <linearGradient id="bg" x1="0" x2="1" y1="0" y2="1">
      <stop offset="0" stop-color="#F8FAFC"/>
      <stop offset="0.42" stop-color="#E8F3F1"/>
      <stop offset="1" stop-color="#FFF7ED"/>
    </linearGradient>
    <filter id="shadow" x="-20%" y="-20%" width="140%" height="150%">
      <feDropShadow dx="0" dy="12" stdDeviation="18" flood-color="#0F172A" flood-opacity="0.14"/>
    </filter>
  </defs>
  <rect width="1440" height="420" rx="0" fill="url(#bg)"/>
  <rect x="58" y="54" width="1324" height="312" rx="28" fill="#FFFFFF" opacity="0.82" filter="url(#shadow)"/>
  <text x="92" y="134" font-family="Inter, Segoe UI, Arial, sans-serif" font-size="54" font-weight="800" fill="#17201D">tech-route-maker</text>
  <text x="96" y="178" font-family="Inter, Segoe UI, Arial, sans-serif" font-size="22" fill="#475569">Editable technical route diagrams from papers, projects, repositories, and campaign briefs</text>
  <g transform="translate(96 222)">
    <rect width="138" height="40" rx="20" fill="#315C61"/>
    <text x="69" y="26" text-anchor="middle" font-family="Inter, Segoe UI, Arial, sans-serif" font-size="15" font-weight="700" fill="#FFFFFF">PPTX</text>
    <rect x="154" width="118" height="40" rx="20" fill="#2563EB"/>
    <text x="213" y="26" text-anchor="middle" font-family="Inter, Segoe UI, Arial, sans-serif" font-size="15" font-weight="700" fill="#FFFFFF">SVG</text>
    <rect x="288" width="140" height="40" rx="20" fill="#7C3AED"/>
    <text x="358" y="26" text-anchor="middle" font-family="Inter, Segoe UI, Arial, sans-serif" font-size="15" font-weight="700" fill="#FFFFFF">Draw.io</text>
    <rect x="444" width="152" height="40" rx="20" fill="#E11D48"/>
    <text x="520" y="26" text-anchor="middle" font-family="Inter, Segoe UI, Arial, sans-serif" font-size="15" font-weight="700" fill="#FFFFFF">HTML</text>
    <rect x="612" width="178" height="40" rx="20" fill="#0F766E"/>
    <text x="701" y="26" text-anchor="middle" font-family="Inter, Segoe UI, Arial, sans-serif" font-size="15" font-weight="700" fill="#FFFFFF">Agent portable</text>
  </g>
  <g transform="translate(875 92)">
    <rect x="0" y="0" width="128" height="62" rx="16" fill="#E8F3F1" stroke="#8BAAA5" stroke-width="2"/>
    <text x="64" y="38" text-anchor="middle" font-family="Inter, Segoe UI, Arial, sans-serif" font-size="16" font-weight="700" fill="#17201D">Evidence</text>
    <rect x="184" y="0" width="128" height="62" rx="16" fill="#EAF0F6" stroke="#93C5FD" stroke-width="2"/>
    <text x="248" y="38" text-anchor="middle" font-family="Inter, Segoe UI, Arial, sans-serif" font-size="16" font-weight="700" fill="#17201D">Route JSON</text>
    <rect x="368" y="0" width="128" height="62" rx="16" fill="#F6F1E8" stroke="#FDBA74" stroke-width="2"/>
    <text x="432" y="38" text-anchor="middle" font-family="Inter, Segoe UI, Arial, sans-serif" font-size="16" font-weight="700" fill="#17201D">Render</text>
    <path d="M132 31 H178" stroke="#315C61" stroke-width="4" stroke-linecap="round"/>
    <path d="M316 31 H362" stroke="#315C61" stroke-width="4" stroke-linecap="round"/>
    <path d="M170 23 L180 31 L170 39" fill="none" stroke="#315C61" stroke-width="4" stroke-linecap="round" stroke-linejoin="round"/>
    <path d="M354 23 L364 31 L354 39" fill="none" stroke="#315C61" stroke-width="4" stroke-linecap="round" stroke-linejoin="round"/>
    <rect x="0" y="122" width="496" height="112" rx="20" fill="#FFFFFF" stroke="#CBD5E1" stroke-width="2"/>
    <text x="26" y="158" font-family="Inter, Segoe UI, Arial, sans-serif" font-size="18" font-weight="800" fill="#17201D">Ask before rendering</text>
    <text x="26" y="190" font-family="Inter, Segoe UI, Arial, sans-serif" font-size="15" fill="#475569">Purpose · formats · layout · style</text>
    <text x="26" y="218" font-family="Inter, Segoe UI, Arial, sans-serif" font-size="15" fill="#475569">No guessing from vague words like "editable"</text>
  </g>
</svg>
