<svg xmlns="http://www.w3.org/2000/svg" width="1280" height="360" viewBox="0 0 1280 360">
<rect width="100%" height="100%" fill="#FFFFFF"/>
<rect x="18" y="18" width="1244" height="324" rx="18" fill="#FFFFFF" stroke="#D8E1EA" stroke-width="1"/>
<text x="640" y="66" text-anchor="middle" font-family="Arial, Helvetica, sans-serif" font-size="30" font-weight="700" fill="#172033">tech-route-maker</text>
<text x="640" y="104" text-anchor="middle" font-family="Arial, Helvetica, sans-serif" font-size="15" font-weight="400" fill="#59636A">Evidence-grounded editable route diagrams for research and engineering</text>
<rect x="66" y="146" width="250" height="164" rx="14" fill="#E8F3F1" stroke="#C8D4E0" stroke-width="1.4"/>
<rect x="84" y="164" width="214" height="32" rx="8" fill="#315C61" stroke="#315C61" stroke-width="1"/>
<text x="191.0" y="185" text-anchor="middle" font-family="Arial, Helvetica, sans-serif" font-size="14" font-weight="700" fill="#FFFFFF">Academic</text>
<rect x="96" y="214" width="190" height="24" rx="7" fill="#FFFFFF" stroke="#9DB3C5" stroke-width="1.1"/>
<text x="191.0" y="230.0" text-anchor="middle" font-family="Arial, Helvetica, sans-serif" font-size="11" font-weight="600" fill="#172033">Goal</text>
<path d="M 191.0 238 L 191.0 246" stroke="#315C61" stroke-width="1.6" marker-end="url(#arrow0)"/>
<rect x="96" y="248" width="190" height="24" rx="7" fill="#FFFFFF" stroke="#9DB3C5" stroke-width="1.1"/>
<text x="191.0" y="264.0" text-anchor="middle" font-family="Arial, Helvetica, sans-serif" font-size="11" font-weight="600" fill="#172033">Data</text>
<path d="M 191.0 272 L 191.0 280" stroke="#315C61" stroke-width="1.6" marker-end="url(#arrow0)"/>
<rect x="96" y="282" width="190" height="24" rx="7" fill="#FFFFFF" stroke="#9DB3C5" stroke-width="1.1"/>
<text x="191.0" y="298.0" text-anchor="middle" font-family="Arial, Helvetica, sans-serif" font-size="11" font-weight="600" fill="#172033">Method</text>
<defs><marker id="arrow0" viewBox="0 0 10 10" refX="8" refY="5" markerWidth="6" markerHeight="6" orient="auto"><path d="M 0 0 L 10 5 L 0 10 z" fill="#315C61"/></marker></defs>
<rect x="344" y="146" width="250" height="164" rx="14" fill="#F7E0E8" stroke="#C8D4E0" stroke-width="1.4"/>
<rect x="362" y="164" width="214" height="32" rx="8" fill="#7BCFD0" stroke="#7BCFD0" stroke-width="1"/>
<text x="469.0" y="185" text-anchor="middle" font-family="Arial, Helvetica, sans-serif" font-size="14" font-weight="700" fill="#FFFFFF">Proposal</text>
<rect x="374" y="214" width="190" height="24" rx="7" fill="#FFFFFF" stroke="#9DB3C5" stroke-width="1.1"/>
<text x="469.0" y="230.0" text-anchor="middle" font-family="Arial, Helvetica, sans-serif" font-size="11" font-weight="600" fill="#172033">Objective</text>
<path d="M 469.0 238 L 469.0 246" stroke="#7BCFD0" stroke-width="1.6" marker-end="url(#arrow1)"/>
<rect x="374" y="248" width="190" height="24" rx="7" fill="#FFFFFF" stroke="#9DB3C5" stroke-width="1.1"/>
<text x="469.0" y="264.0" text-anchor="middle" font-family="Arial, Helvetica, sans-serif" font-size="11" font-weight="600" fill="#172033">Content</text>
<path d="M 469.0 272 L 469.0 280" stroke="#7BCFD0" stroke-width="1.6" marker-end="url(#arrow1)"/>
<rect x="374" y="282" width="190" height="24" rx="7" fill="#FFFFFF" stroke="#9DB3C5" stroke-width="1.1"/>
<text x="469.0" y="298.0" text-anchor="middle" font-family="Arial, Helvetica, sans-serif" font-size="11" font-weight="600" fill="#172033">Technology</text>
<defs><marker id="arrow1" viewBox="0 0 10 10" refX="8" refY="5" markerWidth="6" markerHeight="6" orient="auto"><path d="M 0 0 L 10 5 L 0 10 z" fill="#7BCFD0"/></marker></defs>
<rect x="622" y="146" width="250" height="164" rx="14" fill="#E8EEF7" stroke="#C8D4E0" stroke-width="1.4"/>
<rect x="640" y="164" width="214" height="32" rx="8" fill="#27456F" stroke="#27456F" stroke-width="1"/>
<text x="747.0" y="185" text-anchor="middle" font-family="Arial, Helvetica, sans-serif" font-size="14" font-weight="700" fill="#FFFFFF">Engineering</text>
<rect x="652" y="214" width="190" height="24" rx="7" fill="#FFFFFF" stroke="#9DB3C5" stroke-width="1.1"/>
<text x="747.0" y="230.0" text-anchor="middle" font-family="Arial, Helvetica, sans-serif" font-size="11" font-weight="600" fill="#172033">Boundary</text>
<path d="M 747.0 238 L 747.0 246" stroke="#27456F" stroke-width="1.6" marker-end="url(#arrow2)"/>
<rect x="652" y="248" width="190" height="24" rx="7" fill="#FFFFFF" stroke="#9DB3C5" stroke-width="1.1"/>
<text x="747.0" y="264.0" text-anchor="middle" font-family="Arial, Helvetica, sans-serif" font-size="11" font-weight="600" fill="#172033">Model</text>
<path d="M 747.0 272 L 747.0 280" stroke="#27456F" stroke-width="1.6" marker-end="url(#arrow2)"/>
<rect x="652" y="282" width="190" height="24" rx="7" fill="#FFFFFF" stroke="#9DB3C5" stroke-width="1.1"/>
<text x="747.0" y="298.0" text-anchor="middle" font-family="Arial, Helvetica, sans-serif" font-size="11" font-weight="600" fill="#172033">Control</text>
<defs><marker id="arrow2" viewBox="0 0 10 10" refX="8" refY="5" markerWidth="6" markerHeight="6" orient="auto"><path d="M 0 0 L 10 5 L 0 10 z" fill="#27456F"/></marker></defs>
<rect x="900" y="146" width="250" height="164" rx="14" fill="#F4F5F7" stroke="#C8D4E0" stroke-width="1.4"/>
<rect x="918" y="164" width="214" height="32" rx="8" fill="#475569" stroke="#475569" stroke-width="1"/>
<text x="1025.0" y="185" text-anchor="middle" font-family="Arial, Helvetica, sans-serif" font-size="14" font-weight="700" fill="#FFFFFF">Workflow</text>
<rect x="930" y="214" width="190" height="24" rx="7" fill="#FFFFFF" stroke="#9DB3C5" stroke-width="1.1"/>
<text x="1025.0" y="230.0" text-anchor="middle" font-family="Arial, Helvetica, sans-serif" font-size="11" font-weight="600" fill="#172033">Intake</text>
<path d="M 1025.0 238 L 1025.0 246" stroke="#475569" stroke-width="1.6" marker-end="url(#arrow3)"/>
<rect x="930" y="248" width="190" height="24" rx="7" fill="#FFFFFF" stroke="#9DB3C5" stroke-width="1.1"/>
<text x="1025.0" y="264.0" text-anchor="middle" font-family="Arial, Helvetica, sans-serif" font-size="11" font-weight="600" fill="#172033">Extract</text>
<path d="M 1025.0 272 L 1025.0 280" stroke="#475569" stroke-width="1.6" marker-end="url(#arrow3)"/>
<rect x="930" y="282" width="190" height="24" rx="7" fill="#FFFFFF" stroke="#9DB3C5" stroke-width="1.1"/>
<text x="1025.0" y="298.0" text-anchor="middle" font-family="Arial, Helvetica, sans-serif" font-size="11" font-weight="600" fill="#172033">Render</text>
<defs><marker id="arrow3" viewBox="0 0 10 10" refX="8" refY="5" markerWidth="6" markerHeight="6" orient="auto"><path d="M 0 0 L 10 5 L 0 10 z" fill="#475569"/></marker></defs>
<text x="640" y="336" text-anchor="middle" font-family="Arial, Helvetica, sans-serif" font-size="13" font-weight="600" fill="#59636A">Editable PPTX | SVG | Draw.io | HTML | Markdown | JSON</text>
</svg>