<svg xmlns="http://www.w3.org/2000/svg" width="1280" height="360" viewBox="0 0 1280 360">
<rect width="100%" height="100%" fill="#FFFFFF"/>
<rect x="18" y="18" width="1244" height="324" rx="22" fill="#FFFFFF" stroke="#D8E1EA" stroke-width="1" />
<text x="640" y="70" text-anchor="middle" font-family="Arial, Helvetica, sans-serif" font-size="32" font-weight="700" fill="#172033">tech-route-maker</text>
<text x="640" y="106" text-anchor="middle" font-family="Arial, Helvetica, sans-serif" font-size="15" font-weight="400" fill="#59636A">Source-grounded editable technical route diagrams for academic and campaign work</text>
<rect x="70" y="150" width="245" height="158" rx="16" fill="#E8F3F1" stroke="#C8D4E0" stroke-width="1.4" />
<rect x="88" y="168" width="209" height="30" rx="10" fill="#315C61" stroke="#315C61" stroke-width="1" />
<text x="192.5" y="188.0" text-anchor="middle" font-family="Arial, Helvetica, sans-serif" font-size="13" font-weight="700" fill="#FFFFFF">Academic Method</text>
<rect x="100" y="212" width="185" height="24" rx="8" fill="#FFFFFF" stroke="#9DB3C5" stroke-width="1.2" />
<text x="192.5" y="228.0" text-anchor="middle" font-family="Arial, Helvetica, sans-serif" font-size="11" font-weight="600" fill="#172033">Goal</text>
<path d="M 192.5 236 L 192.5 244" stroke="#315C61" stroke-width="1.6" marker-end="url(#arrow0)"/>
<rect x="100" y="246" width="185" height="24" rx="8" fill="#FFFFFF" stroke="#9DB3C5" stroke-width="1.2" />
<text x="192.5" y="262.0" text-anchor="middle" font-family="Arial, Helvetica, sans-serif" font-size="11" font-weight="600" fill="#172033">Data</text>
<path d="M 192.5 270 L 192.5 278" stroke="#315C61" stroke-width="1.6" marker-end="url(#arrow0)"/>
<rect x="100" y="280" width="185" height="24" rx="8" fill="#FFFFFF" stroke="#9DB3C5" stroke-width="1.2" />
<text x="192.5" y="296.0" text-anchor="middle" font-family="Arial, Helvetica, sans-serif" font-size="11" font-weight="600" fill="#172033">Method</text>
<defs><marker id="arrow0" viewBox="0 0 10 10" refX="8" refY="5" markerWidth="6" markerHeight="6" orient="auto"><path d="M 0 0 L 10 5 L 0 10 z" fill="#315C61"/></marker></defs>
<rect x="343" y="150" width="245" height="158" rx="16" fill="#F7E0E8" stroke="#C8D4E0" stroke-width="1.4" />
<rect x="361" y="168" width="209" height="30" rx="10" fill="#7BCFD0" stroke="#7BCFD0" stroke-width="1" />
<text x="465.5" y="188.0" text-anchor="middle" font-family="Arial, Helvetica, sans-serif" font-size="13" font-weight="700" fill="#FFFFFF">Proposal Route</text>
<rect x="373" y="212" width="185" height="24" rx="8" fill="#FFFFFF" stroke="#9DB3C5" stroke-width="1.2" />
<text x="465.5" y="228.0" text-anchor="middle" font-family="Arial, Helvetica, sans-serif" font-size="11" font-weight="600" fill="#172033">Objective</text>
<path d="M 465.5 236 L 465.5 244" stroke="#7BCFD0" stroke-width="1.6" marker-end="url(#arrow1)"/>
<rect x="373" y="246" width="185" height="24" rx="8" fill="#FFFFFF" stroke="#9DB3C5" stroke-width="1.2" />
<text x="465.5" y="262.0" text-anchor="middle" font-family="Arial, Helvetica, sans-serif" font-size="11" font-weight="600" fill="#172033">Content</text>
<path d="M 465.5 270 L 465.5 278" stroke="#7BCFD0" stroke-width="1.6" marker-end="url(#arrow1)"/>
<rect x="373" y="280" width="185" height="24" rx="8" fill="#FFFFFF" stroke="#9DB3C5" stroke-width="1.2" />
<text x="465.5" y="296.0" text-anchor="middle" font-family="Arial, Helvetica, sans-serif" font-size="11" font-weight="600" fill="#172033">Technology</text>
<defs><marker id="arrow1" viewBox="0 0 10 10" refX="8" refY="5" markerWidth="6" markerHeight="6" orient="auto"><path d="M 0 0 L 10 5 L 0 10 z" fill="#7BCFD0"/></marker></defs>
<rect x="616" y="150" width="245" height="158" rx="16" fill="#F3F4F6" stroke="#C8D4E0" stroke-width="1.4" />
<rect x="634" y="168" width="209" height="30" rx="10" fill="#374151" stroke="#374151" stroke-width="1" />
<text x="738.5" y="188.0" text-anchor="middle" font-family="Arial, Helvetica, sans-serif" font-size="13" font-weight="700" fill="#FFFFFF">System Route</text>
<rect x="646" y="212" width="185" height="24" rx="8" fill="#FFFFFF" stroke="#9DB3C5" stroke-width="1.2" />
<text x="738.5" y="228.0" text-anchor="middle" font-family="Arial, Helvetica, sans-serif" font-size="11" font-weight="600" fill="#172033">Input</text>
<path d="M 738.5 236 L 738.5 244" stroke="#374151" stroke-width="1.6" marker-end="url(#arrow2)"/>
<rect x="646" y="246" width="185" height="24" rx="8" fill="#FFFFFF" stroke="#9DB3C5" stroke-width="1.2" />
<text x="738.5" y="262.0" text-anchor="middle" font-family="Arial, Helvetica, sans-serif" font-size="11" font-weight="600" fill="#172033">Data</text>
<path d="M 738.5 270 L 738.5 278" stroke="#374151" stroke-width="1.6" marker-end="url(#arrow2)"/>
<rect x="646" y="280" width="185" height="24" rx="8" fill="#FFFFFF" stroke="#9DB3C5" stroke-width="1.2" />
<text x="738.5" y="296.0" text-anchor="middle" font-family="Arial, Helvetica, sans-serif" font-size="11" font-weight="600" fill="#172033">Service</text>
<defs><marker id="arrow2" viewBox="0 0 10 10" refX="8" refY="5" markerWidth="6" markerHeight="6" orient="auto"><path d="M 0 0 L 10 5 L 0 10 z" fill="#374151"/></marker></defs>
<rect x="889" y="150" width="245" height="158" rx="16" fill="#FFE4E6" stroke="#C8D4E0" stroke-width="1.4" />
<rect x="907" y="168" width="209" height="30" rx="10" fill="#E11D48" stroke="#E11D48" stroke-width="1" />
<text x="1011.5" y="188.0" text-anchor="middle" font-family="Arial, Helvetica, sans-serif" font-size="13" font-weight="700" fill="#FFFFFF">Campaign Map</text>
<rect x="919" y="212" width="185" height="24" rx="8" fill="#FFFFFF" stroke="#9DB3C5" stroke-width="1.2" />
<text x="1011.5" y="228.0" text-anchor="middle" font-family="Arial, Helvetica, sans-serif" font-size="11" font-weight="600" fill="#172033">Audience</text>
<path d="M 1011.5 236 L 1011.5 244" stroke="#E11D48" stroke-width="1.6" marker-end="url(#arrow3)"/>
<rect x="919" y="246" width="185" height="24" rx="8" fill="#FFFFFF" stroke="#9DB3C5" stroke-width="1.2" />
<text x="1011.5" y="262.0" text-anchor="middle" font-family="Arial, Helvetica, sans-serif" font-size="11" font-weight="600" fill="#172033">Message</text>
<path d="M 1011.5 270 L 1011.5 278" stroke="#E11D48" stroke-width="1.6" marker-end="url(#arrow3)"/>
<rect x="919" y="280" width="185" height="24" rx="8" fill="#FFFFFF" stroke="#9DB3C5" stroke-width="1.2" />
<text x="1011.5" y="296.0" text-anchor="middle" font-family="Arial, Helvetica, sans-serif" font-size="11" font-weight="600" fill="#172033">Channels</text>
<defs><marker id="arrow3" viewBox="0 0 10 10" refX="8" refY="5" markerWidth="6" markerHeight="6" orient="auto"><path d="M 0 0 L 10 5 L 0 10 z" fill="#E11D48"/></marker></defs>
<text x="640" y="336" text-anchor="middle" font-family="Arial, Helvetica, sans-serif" font-size="13" font-weight="600" fill="#59636A">Editable SVG | Native PPTX shapes | Draw.io cells | HTML preview</text>
</svg>