<svg xmlns="http://www.w3.org/2000/svg" width="1280" height="560" viewBox="0 0 1280 560" role="img" aria-label="tech-route-maker demo preview">
  <rect width="1280" height="560" fill="#FFFFFF"/>
  <text x="54" y="70" font-family="Inter, Segoe UI, Arial, sans-serif" font-size="34" font-weight="800" fill="#17201D">From source evidence to editable route diagrams</text>
  <text x="56" y="104" font-family="Inter, Segoe UI, Arial, sans-serif" font-size="16" fill="#64748B">One structured model can be rendered as PPTX, SVG, Draw.io, HTML, Mermaid, Markdown, and JSON.</text>
  <g transform="translate(54 150)">
    <rect width="190" height="270" rx="16" fill="#F8FAFC" stroke="#CBD5E1" stroke-width="2"/>
    <text x="24" y="38" font-family="Inter, Segoe UI, Arial, sans-serif" font-size="18" font-weight="800" fill="#17201D">Source</text>
    <rect x="24" y="64" width="142" height="32" rx="8" fill="#E8F3F1"/>
    <text x="95" y="85" text-anchor="middle" font-family="Inter, Segoe UI, Arial, sans-serif" font-size="12" fill="#315C61">paper / brief</text>
    <rect x="24" y="112" width="142" height="32" rx="8" fill="#EAF0F6"/>
    <text x="95" y="133" text-anchor="middle" font-family="Inter, Segoe UI, Arial, sans-serif" font-size="12" fill="#2563EB">repository</text>
    <rect x="24" y="160" width="142" height="32" rx="8" fill="#FFF7ED"/>
    <text x="95" y="181" text-anchor="middle" font-family="Inter, Segoe UI, Arial, sans-serif" font-size="12" fill="#C2410C">campaign</text>
    <rect x="24" y="208" width="142" height="32" rx="8" fill="#FAF5FF"/>
    <text x="95" y="229" text-anchor="middle" font-family="Inter, Segoe UI, Arial, sans-serif" font-size="12" fill="#6D28D9">evidence</text>
  </g>
  <g transform="translate(300 150)">
    <rect width="250" height="270" rx="16" fill="#F8FAF9" stroke="#B8C7C1" stroke-width="2"/>
    <text x="24" y="38" font-family="Inter, Segoe UI, Arial, sans-serif" font-size="18" font-weight="800" fill="#17201D">tech-route.json</text>
    <text x="24" y="72" font-family="Consolas, monospace" font-size="13" fill="#475569">{</text>
    <text x="42" y="98" font-family="Consolas, monospace" font-size="13" fill="#475569">"stages": [...],</text>
    <text x="42" y="124" font-family="Consolas, monospace" font-size="13" fill="#475569">"edges": [...],</text>
    <text x="42" y="150" font-family="Consolas, monospace" font-size="13" fill="#475569">"layout": "ai-pipeline",</text>
    <text x="42" y="176" font-family="Consolas, monospace" font-size="13" fill="#475569">"style": "premium"</text>
    <text x="24" y="202" font-family="Consolas, monospace" font-size="13" fill="#475569">}</text>
    <rect x="24" y="222" width="202" height="30" rx="15" fill="#315C61"/>
    <text x="125" y="242" text-anchor="middle" font-family="Inter, Segoe UI, Arial, sans-serif" font-size="13" font-weight="700" fill="#FFFFFF">source of truth</text>
  </g>
  <g transform="translate(620 150)">
    <rect width="606" height="270" rx="16" fill="#FFFFFF" stroke="#CBD5E1" stroke-width="2"/>
    <text x="24" y="38" font-family="Inter, Segoe UI, Arial, sans-serif" font-size="18" font-weight="800" fill="#17201D">Editable outputs</text>
    <g transform="translate(24 70)">
      <rect width="110" height="64" rx="14" fill="#E8F3F1" stroke="#8BAAA5"/>
      <text x="55" y="39" text-anchor="middle" font-family="Inter, Segoe UI, Arial, sans-serif" font-size="16" font-weight="800" fill="#17201D">PPTX</text>
      <rect x="126" width="110" height="64" rx="14" fill="#EAF0F6" stroke="#93C5FD"/>
      <text x="181" y="39" text-anchor="middle" font-family="Inter, Segoe UI, Arial, sans-serif" font-size="16" font-weight="800" fill="#17201D">SVG</text>
      <rect x="252" width="110" height="64" rx="14" fill="#FAF5FF" stroke="#C4B5FD"/>
      <text x="307" y="39" text-anchor="middle" font-family="Inter, Segoe UI, Arial, sans-serif" font-size="16" font-weight="800" fill="#17201D">Draw.io</text>
      <rect x="378" width="110" height="64" rx="14" fill="#FFF7ED" stroke="#FDBA74"/>
      <text x="433" y="39" text-anchor="middle" font-family="Inter, Segoe UI, Arial, sans-serif" font-size="16" font-weight="800" fill="#17201D">HTML</text>
    </g>
    <g transform="translate(24 156)">
      <rect width="488" height="64" rx="14" fill="#F8FAFC" stroke="#CBD5E1"/>
      <text x="22" y="27" font-family="Inter, Segoe UI, Arial, sans-serif" font-size="14" font-weight="800" fill="#17201D">User chooses before rendering</text>
      <text x="22" y="48" font-family="Inter, Segoe UI, Arial, sans-serif" font-size="13" fill="#64748B">figure subtype · output formats · layout · visual style</text>
    </g>
  </g>
  <path d="M252 285 H292" stroke="#315C61" stroke-width="5" stroke-linecap="round"/>
  <path d="M542 285 H612" stroke="#315C61" stroke-width="5" stroke-linecap="round"/>
  <path d="M282 275 L294 285 L282 295" fill="none" stroke="#315C61" stroke-width="5" stroke-linecap="round" stroke-linejoin="round"/>
  <path d="M602 275 L614 285 L602 295" fill="none" stroke="#315C61" stroke-width="5" stroke-linecap="round" stroke-linejoin="round"/>
</svg>
