<svg xmlns="http://www.w3.org/2000/svg" width="1320" height="854" viewBox="0 0 1320 854">
<defs>
<marker id="arrow" viewBox="0 0 10 10" refX="9" refY="5" markerWidth="8" markerHeight="8" orient="auto-start-reverse"><path d="M 0 0 L 10 5 L 0 10 z" fill="#1F2937"/></marker>
<filter id="softShadow" x="-20%" y="-20%" width="140%" height="140%"><feDropShadow dx="0" dy="2" stdDeviation="2" flood-color="#CBD5E1" flood-opacity="0.32"/></filter>
</defs>
<rect width="100%" height="100%" fill="#FFFFFF"/>
<rect x="10.0" y="10.0" width="1300.0" height="834.0" rx="18" fill="none" stroke="#D8E1EA" stroke-width="1.0" />
<rect x="64.0" y="22.0" width="1192.0" height="58.0" rx="18" fill="#F9FAFB" stroke="none" stroke-width="1.5" />
<text x="660.0" y="58.0" text-anchor="middle" font-size="24" font-family="Arial, Helvetica, sans-serif" font-weight="700" fill="#111827" >Document Intelligence System Technical Route</text>
<text x="660.0" y="92.0" text-anchor="middle" font-size="12" font-family="Arial, Helvetica, sans-serif" font-weight="400" fill="#4B5563" >Editable system architecture route generated by tech-route-maker</text>
<rect x="238.0" y="150.0" width="1008.0" height="114.0" rx="6" fill="#F9FAFB" stroke="#9CA3AF" stroke-width="1.4" opacity="0.78"/>
<rect x="58.0" y="150.0" width="146.0" height="114.0" rx="6" fill="#374151" stroke="#374151" stroke-width="1.0" />
<text x="131.0" y="202.9" text-anchor="middle" font-size="14" font-family="Arial, Helvetica, sans-serif" font-weight="700" fill="#FFFFFF" >User</text>
<text x="131.0" y="219.9" text-anchor="middle" font-size="14" font-family="Arial, Helvetica, sans-serif" font-weight="700" fill="#FFFFFF" >Input</text>
<rect x="238.0" y="282.0" width="1008.0" height="114.0" rx="6" fill="#F3F4F6" stroke="#9CA3AF" stroke-width="1.4" opacity="0.78"/>
<rect x="58.0" y="282.0" width="146.0" height="114.0" rx="6" fill="#374151" stroke="#374151" stroke-width="1.0" />
<text x="131.0" y="334.9" text-anchor="middle" font-size="14" font-family="Arial, Helvetica, sans-serif" font-weight="700" fill="#FFFFFF" >Data</text>
<text x="131.0" y="351.9" text-anchor="middle" font-size="14" font-family="Arial, Helvetica, sans-serif" font-weight="700" fill="#FFFFFF" >Layer</text>
<rect x="238.0" y="414.0" width="1008.0" height="114.0" rx="6" fill="#EEF2FF" stroke="#9CA3AF" stroke-width="1.4" opacity="0.78"/>
<rect x="58.0" y="414.0" width="146.0" height="114.0" rx="6" fill="#374151" stroke="#374151" stroke-width="1.0" />
<text x="131.0" y="466.9" text-anchor="middle" font-size="14" font-family="Arial, Helvetica, sans-serif" font-weight="700" fill="#FFFFFF" >Service</text>
<text x="131.0" y="483.9" text-anchor="middle" font-size="14" font-family="Arial, Helvetica, sans-serif" font-weight="700" fill="#FFFFFF" >Layer</text>
<rect x="238.0" y="546.0" width="1008.0" height="114.0" rx="6" fill="#ECFEFF" stroke="#9CA3AF" stroke-width="1.4" opacity="0.78"/>
<rect x="58.0" y="546.0" width="146.0" height="114.0" rx="6" fill="#374151" stroke="#374151" stroke-width="1.0" />
<text x="131.0" y="598.9" text-anchor="middle" font-size="14" font-family="Arial, Helvetica, sans-serif" font-weight="700" fill="#FFFFFF" >Rendering</text>
<text x="131.0" y="615.9" text-anchor="middle" font-size="14" font-family="Arial, Helvetica, sans-serif" font-weight="700" fill="#FFFFFF" >Layer</text>
<rect x="238.0" y="678.0" width="1008.0" height="114.0" rx="6" fill="#F0FDF4" stroke="#9CA3AF" stroke-width="1.4" opacity="0.78"/>
<rect x="58.0" y="678.0" width="146.0" height="114.0" rx="6" fill="#374151" stroke="#374151" stroke-width="1.0" />
<text x="131.0" y="730.9" text-anchor="middle" font-size="14" font-family="Arial, Helvetica, sans-serif" font-weight="700" fill="#FFFFFF" >Quality</text>
<text x="131.0" y="747.9" text-anchor="middle" font-size="14" font-family="Arial, Helvetica, sans-serif" font-weight="700" fill="#FFFFFF" >Release</text>
<path d="M 733.0 207.0 C 742.0 207.0, 742.0 207.0, 751.0 207.0" fill="none" stroke="#1F2937" stroke-width="2.1" marker-end="url(#arrow)" opacity="0.72"/>
<rect x="711.0" y="187.0" width="62.0" height="19.0" rx="9" fill="#FFFFFF" stroke="#E7ECF2" stroke-width="0.8" />
<text x="742.0" y="201.0" text-anchor="middle" font-size="9" font-family="Arial, Helvetica, sans-serif" font-weight="600" fill="#4B5563" >configures</text>
<path d="M 981.0 236.0 C 981.0 273.0, 423.3 273.0, 423.3 310.0" fill="none" stroke="#1F2937" stroke-width="2.1" marker-end="url(#arrow)" opacity="0.72" stroke-dasharray="6 5"/>
<rect x="671.2" y="253.0" width="62.0" height="19.0" rx="9" fill="#FFFFFF" stroke="#E7ECF2" stroke-width="0.8" />
<text x="702.2" y="267.0" text-anchor="middle" font-size="9" font-family="Arial, Helvetica, sans-serif" font-weight="600" fill="#4B5563" >starts</text>
<path d="M 573.7 339.0 C 582.7 339.0, 582.7 339.0, 591.7 339.0" fill="none" stroke="#1F2937" stroke-width="2.1" marker-end="url(#arrow)" opacity="0.72"/>
<rect x="551.7" y="319.0" width="62.0" height="19.0" rx="9" fill="#FFFFFF" stroke="#E7ECF2" stroke-width="0.8" />
<text x="582.7" y="333.0" text-anchor="middle" font-size="9" font-family="Arial, Helvetica, sans-serif" font-weight="600" fill="#4B5563" >normalizes</text>
<path d="M 892.3 339.0 C 901.3 339.0, 901.3 339.0, 910.3 339.0" fill="none" stroke="#1F2937" stroke-width="2.1" marker-end="url(#arrow)" opacity="0.72"/>
<rect x="870.3" y="319.0" width="62.0" height="19.0" rx="9" fill="#FFFFFF" stroke="#E7ECF2" stroke-width="0.8" />
<text x="901.3" y="333.0" text-anchor="middle" font-size="9" font-family="Arial, Helvetica, sans-serif" font-weight="600" fill="#4B5563" >links</text>
<path d="M 1060.7 368.0 C 1060.7 405.0, 423.3 405.0, 423.3 442.0" fill="none" stroke="#1F2937" stroke-width="2.1" marker-end="url(#arrow)" opacity="0.72" stroke-dasharray="6 5"/>
<rect x="711.0" y="385.0" width="62.0" height="19.0" rx="9" fill="#FFFFFF" stroke="#E7ECF2" stroke-width="0.8" />
<text x="742.0" y="399.0" text-anchor="middle" font-size="9" font-family="Arial, Helvetica, sans-serif" font-weight="600" fill="#4B5563" >grounds</text>
<path d="M 573.7 471.0 C 582.7 471.0, 582.7 471.0, 591.7 471.0" fill="none" stroke="#1F2937" stroke-width="2.1" marker-end="url(#arrow)" opacity="0.72"/>
<rect x="551.7" y="451.0" width="62.0" height="19.0" rx="9" fill="#FFFFFF" stroke="#E7ECF2" stroke-width="0.8" />
<text x="582.7" y="465.0" text-anchor="middle" font-size="9" font-family="Arial, Helvetica, sans-serif" font-weight="600" fill="#4B5563" >checks</text>
<path d="M 892.3 471.0 C 901.3 471.0, 901.3 471.0, 910.3 471.0" fill="none" stroke="#1F2937" stroke-width="2.1" marker-end="url(#arrow)" opacity="0.72"/>
<rect x="870.3" y="451.0" width="62.0" height="19.0" rx="9" fill="#FFFFFF" stroke="#E7ECF2" stroke-width="0.8" />
<text x="901.3" y="465.0" text-anchor="middle" font-size="9" font-family="Arial, Helvetica, sans-serif" font-weight="600" fill="#4B5563" >routes</text>
<path d="M 1060.7 500.0 C 1060.7 537.0, 423.3 537.0, 423.3 574.0" fill="none" stroke="#1F2937" stroke-width="2.1" marker-end="url(#arrow)" opacity="0.72" stroke-dasharray="6 5"/>
<rect x="711.0" y="517.0" width="62.0" height="19.0" rx="9" fill="#FFFFFF" stroke="#E7ECF2" stroke-width="0.8" />
<text x="742.0" y="531.0" text-anchor="middle" font-size="9" font-family="Arial, Helvetica, sans-serif" font-weight="600" fill="#4B5563" >renders</text>
<path d="M 1060.7 500.0 C 1060.7 537.0, 742.0 537.0, 742.0 574.0" fill="none" stroke="#1F2937" stroke-width="2.1" marker-end="url(#arrow)" opacity="0.72" stroke-dasharray="6 5"/>
<rect x="870.3" y="517.0" width="62.0" height="19.0" rx="9" fill="#FFFFFF" stroke="#E7ECF2" stroke-width="0.8" />
<text x="901.3" y="531.0" text-anchor="middle" font-size="9" font-family="Arial, Helvetica, sans-serif" font-weight="600" fill="#4B5563" >renders</text>
<path d="M 1060.7 500.0 C 1060.7 537.0, 1060.7 537.0, 1060.7 574.0" fill="none" stroke="#1F2937" stroke-width="2.1" marker-end="url(#arrow)" opacity="0.72"/>
<rect x="1029.7" y="517.0" width="62.0" height="19.0" rx="9" fill="#FFFFFF" stroke="#E7ECF2" stroke-width="0.8" />
<text x="1060.7" y="531.0" text-anchor="middle" font-size="9" font-family="Arial, Helvetica, sans-serif" font-weight="600" fill="#4B5563" >renders</text>
<path d="M 742.0 632.0 C 742.0 669.0, 503.0 669.0, 503.0 706.0" fill="none" stroke="#1F2937" stroke-width="2.1" marker-end="url(#arrow)" opacity="0.72" stroke-dasharray="6 5"/>
<rect x="591.5" y="649.0" width="62.0" height="19.0" rx="9" fill="#FFFFFF" stroke="#E7ECF2" stroke-width="0.8" />
<text x="622.5" y="663.0" text-anchor="middle" font-size="9" font-family="Arial, Helvetica, sans-serif" font-weight="600" fill="#4B5563" >reviews</text>
<path d="M 733.0 735.0 C 742.0 735.0, 742.0 735.0, 751.0 735.0" fill="none" stroke="#1F2937" stroke-width="2.1" marker-end="url(#arrow)" opacity="0.72"/>
<rect x="711.0" y="715.0" width="62.0" height="19.0" rx="9" fill="#FFFFFF" stroke="#E7ECF2" stroke-width="0.8" />
<text x="742.0" y="729.0" text-anchor="middle" font-size="9" font-family="Arial, Helvetica, sans-serif" font-weight="600" fill="#4B5563" >releases</text>
<g class="node" data-node="input_files" style="cursor:pointer">
<rect x="273.0" y="178.0" width="460.0" height="58.0" rx="10" fill="#FFFFFF" stroke="#111827" stroke-width="1.45" filter="url(#softShadow)"/>
<circle cx="287.0" cy="192.0" r="4.2" fill="#0F766E" opacity="0.86"/>
<text x="503.0" y="211.0" text-anchor="middle" font-size="12" font-family="Arial, Helvetica, sans-serif" font-weight="600" fill="#111827" >Receive files</text>
</g>
<g class="node" data-node="input_options" style="cursor:pointer">
<rect x="751.0" y="178.0" width="460.0" height="58.0" rx="10" fill="#FFFFFF" stroke="#111827" stroke-width="1.45" filter="url(#softShadow)"/>
<circle cx="765.0" cy="192.0" r="4.2" fill="#0F766E" opacity="0.86"/>
<text x="981.0" y="211.0" text-anchor="middle" font-size="12" font-family="Arial, Helvetica, sans-serif" font-weight="600" fill="#111827" >Capture output choices</text>
</g>
<g class="node" data-node="data_ingest" style="cursor:pointer">
<rect x="273.0" y="310.0" width="300.7" height="58.0" rx="10" fill="#FFFFFF" stroke="#111827" stroke-width="1.45" filter="url(#softShadow)"/>
<circle cx="287.0" cy="324.0" r="4.2" fill="#0F766E" opacity="0.86"/>
<text x="423.3" y="343.0" text-anchor="middle" font-size="12" font-family="Arial, Helvetica, sans-serif" font-weight="600" fill="#111827" >Ingest sources</text>
</g>
<g class="node" data-node="data_store" style="cursor:pointer">
<rect x="591.7" y="310.0" width="300.7" height="58.0" rx="10" fill="#FFFFFF" stroke="#111827" stroke-width="1.45" filter="url(#softShadow)"/>
<circle cx="605.7" cy="324.0" r="4.2" fill="#0F766E" opacity="0.86"/>
<text x="742.0" y="343.0" text-anchor="middle" font-size="12" font-family="Arial, Helvetica, sans-serif" font-weight="600" fill="#111827" >Build normalized store</text>
</g>
<g class="node" data-node="data_trace" style="cursor:pointer">
<rect x="910.3" y="310.0" width="300.7" height="58.0" rx="10" fill="#FFFFFF" stroke="#111827" stroke-width="1.45" filter="url(#softShadow)"/>
<circle cx="924.3" cy="324.0" r="4.2" fill="#0F766E" opacity="0.86"/>
<text x="1060.7" y="343.0" text-anchor="middle" font-size="12" font-family="Arial, Helvetica, sans-serif" font-weight="600" fill="#111827" >Track provenance</text>
</g>
<g class="node" data-node="service_extract" style="cursor:pointer">
<rect x="273.0" y="442.0" width="300.7" height="58.0" rx="10" fill="#FFFFFF" stroke="#111827" stroke-width="1.45" filter="url(#softShadow)"/>
<circle cx="287.0" cy="456.0" r="4.2" fill="#0F766E" opacity="0.86"/>
<text x="423.3" y="475.0" text-anchor="middle" font-size="12" font-family="Arial, Helvetica, sans-serif" font-weight="600" fill="#111827" >Extract route model</text>
</g>
<g class="node" data-node="service_schema" style="cursor:pointer">
<rect x="591.7" y="442.0" width="300.7" height="58.0" rx="10" fill="#FFFFFF" stroke="#111827" stroke-width="1.45" filter="url(#softShadow)"/>
<circle cx="605.7" cy="456.0" r="4.2" fill="#0F766E" opacity="0.86"/>
<text x="742.0" y="475.0" text-anchor="middle" font-size="12" font-family="Arial, Helvetica, sans-serif" font-weight="600" fill="#111827" >Validate schema</text>
</g>
<g class="node" data-node="service_layout" style="cursor:pointer">
<rect x="910.3" y="442.0" width="300.7" height="58.0" rx="10" fill="#FFFFFF" stroke="#111827" stroke-width="1.45" filter="url(#softShadow)"/>
<circle cx="924.3" cy="456.0" r="4.2" fill="#0F766E" opacity="0.86"/>
<text x="1060.7" y="475.0" text-anchor="middle" font-size="12" font-family="Arial, Helvetica, sans-serif" font-weight="600" fill="#111827" >Select template family</text>
</g>
<g class="node" data-node="render_svg" style="cursor:pointer">
<rect x="273.0" y="574.0" width="300.7" height="58.0" rx="10" fill="#FFFFFF" stroke="#111827" stroke-width="1.45" filter="url(#softShadow)"/>
<circle cx="287.0" cy="588.0" r="4.2" fill="#0F766E" opacity="0.86"/>
<text x="423.3" y="607.0" text-anchor="middle" font-size="12" font-family="Arial, Helvetica, sans-serif" font-weight="600" fill="#111827" >Render SVG/HTML</text>
</g>
<g class="node" data-node="render_pptx" style="cursor:pointer">
<rect x="591.7" y="574.0" width="300.7" height="58.0" rx="10" fill="#FFFFFF" stroke="#111827" stroke-width="1.45" filter="url(#softShadow)"/>
<circle cx="605.7" cy="588.0" r="4.2" fill="#0F766E" opacity="0.86"/>
<text x="742.0" y="607.0" text-anchor="middle" font-size="12" font-family="Arial, Helvetica, sans-serif" font-weight="600" fill="#111827" >Render PPTX shapes</text>
</g>
<g class="node" data-node="render_drawio" style="cursor:pointer">
<rect x="910.3" y="574.0" width="300.7" height="58.0" rx="10" fill="#FFFFFF" stroke="#111827" stroke-width="1.45" filter="url(#softShadow)"/>
<circle cx="924.3" cy="588.0" r="4.2" fill="#0F766E" opacity="0.86"/>
<text x="1060.7" y="607.0" text-anchor="middle" font-size="12" font-family="Arial, Helvetica, sans-serif" font-weight="600" fill="#111827" >Render Draw.io cells</text>
</g>
<g class="node" data-node="quality_visual" style="cursor:pointer">
<rect x="273.0" y="706.0" width="460.0" height="58.0" rx="10" fill="#FFFFFF" stroke="#111827" stroke-width="1.45" filter="url(#softShadow)"/>
<circle cx="287.0" cy="720.0" r="4.2" fill="#0F766E" opacity="0.86"/>
<text x="503.0" y="739.0" text-anchor="middle" font-size="12" font-family="Arial, Helvetica, sans-serif" font-weight="600" fill="#111827" >Run visual QA</text>
</g>
<g class="node" data-node="quality_publish" style="cursor:pointer">
<rect x="751.0" y="706.0" width="460.0" height="58.0" rx="10" fill="#FFFFFF" stroke="#111827" stroke-width="1.45" filter="url(#softShadow)"/>
<circle cx="765.0" cy="720.0" r="4.2" fill="#0F766E" opacity="0.86"/>
<text x="981.0" y="739.0" text-anchor="middle" font-size="12" font-family="Arial, Helvetica, sans-serif" font-weight="600" fill="#111827" >Publish examples</text>
</g>
</svg>