<svg xmlns="http://www.w3.org/2000/svg" width="1340" height="580" viewBox="0 0 1340 580">
<defs>
<marker id="arrow" viewBox="0 0 10 10" refX="9" refY="5" markerWidth="8" markerHeight="8" orient="auto-start-reverse"><path d="M 0 0 L 10 5 L 0 10 z" fill="#111111"/></marker>
<filter id="softShadow" x="-20%" y="-20%" width="140%" height="140%"><feDropShadow dx="0" dy="2" stdDeviation="2" flood-color="#CBD5E1" flood-opacity="0.32"/></filter>
</defs>
<rect width="100%" height="100%" fill="#FFFFFF"/>
<rect x="10.0" y="10.0" width="1320.0" height="560.0" rx="18" fill="none" stroke="#D8E1EA" stroke-width="1.0" />
<rect x="64.0" y="22.0" width="1212.0" height="58.0" rx="18" fill="#FFFFFF" stroke="none" stroke-width="1.5" />
<text x="670.0" y="58.0" text-anchor="middle" font-size="24" font-family="Arial, Helvetica, sans-serif" font-weight="700" fill="#111111" >Software Architecture Technical Route</text>
<text x="670.0" y="92.0" text-anchor="middle" font-size="12" font-family="Arial, Helvetica, sans-serif" font-weight="400" fill="#555555" >Document-to-report workflow demo</text>
<rect x="192.0" y="108.0" width="128.0" height="26.0" rx="13" fill="#FFFFFF" stroke="#F7F7F7" stroke-width="1.0" />
<text x="256.0" y="125.0" text-anchor="middle" font-size="10" font-family="Arial, Helvetica, sans-serif" font-weight="600" fill="#555555" >Inputs</text>
<rect x="330.0" y="108.0" width="128.0" height="26.0" rx="13" fill="#FFFFFF" stroke="#FFFFFF" stroke-width="1.0" />
<text x="394.0" y="125.0" text-anchor="middle" font-size="10" font-family="Arial, Helvetica, sans-serif" font-weight="600" fill="#555555" >Ingestion</text>
<rect x="468.0" y="108.0" width="128.0" height="26.0" rx="13" fill="#FFFFFF" stroke="#F7F7F7" stroke-width="1.0" />
<text x="532.0" y="125.0" text-anchor="middle" font-size="10" font-family="Arial, Helvetica, sans-serif" font-weight="600" fill="#555555" >Processing</text>
<rect x="606.0" y="108.0" width="128.0" height="26.0" rx="13" fill="#FFFFFF" stroke="#FFFFFF" stroke-width="1.0" />
<text x="670.0" y="125.0" text-anchor="middle" font-size="10" font-family="Arial, Helvetica, sans-serif" font-weight="600" fill="#555555" >Analysis</text>
<rect x="744.0" y="108.0" width="128.0" height="26.0" rx="13" fill="#FFFFFF" stroke="#F7F7F7" stroke-width="1.0" />
<text x="808.0" y="125.0" text-anchor="middle" font-size="10" font-family="Arial, Helvetica, sans-serif" font-weight="600" fill="#555555" >Rendering</text>
<rect x="882.0" y="108.0" width="128.0" height="26.0" rx="13" fill="#FFFFFF" stroke="#FFFFFF" stroke-width="1.0" />
<text x="946.0" y="125.0" text-anchor="middle" font-size="10" font-family="Arial, Helvetica, sans-serif" font-weight="600" fill="#555555" >Quality gate</text>
<rect x="1020.0" y="108.0" width="128.0" height="26.0" rx="13" fill="#FFFFFF" stroke="#F7F7F7" stroke-width="1.0" />
<text x="1084.0" y="125.0" text-anchor="middle" font-size="10" font-family="Arial, Helvetica, sans-serif" font-weight="600" fill="#555555" >Artifacts</text>
<rect x="64.0" y="166.0" width="218.4" height="358.0" rx="14" fill="#FFFFFF" stroke="#222222" stroke-width="1.3" stroke-dasharray="7 5" />
<rect x="64.0" y="166.0" width="218.4" height="42.0" rx="12" fill="#FFFFFF" stroke="#FFFFFF" stroke-width="1.0" />
<text x="173.2" y="193.0" text-anchor="middle" font-size="13" font-family="Arial, Helvetica, sans-serif" font-weight="700" fill="#111111" >Inputs</text>
<rect x="312.4" y="166.0" width="218.4" height="358.0" rx="14" fill="#FFFFFF" stroke="#222222" stroke-width="1.3" stroke-dasharray="7 5" />
<rect x="312.4" y="166.0" width="218.4" height="42.0" rx="12" fill="#FFFFFF" stroke="#FFFFFF" stroke-width="1.0" />
<text x="421.6" y="193.0" text-anchor="middle" font-size="13" font-family="Arial, Helvetica, sans-serif" font-weight="700" fill="#111111" >Ingestion</text>
<rect x="560.8" y="166.0" width="218.4" height="358.0" rx="14" fill="#FFFFFF" stroke="#222222" stroke-width="1.3" stroke-dasharray="7 5" />
<rect x="560.8" y="166.0" width="218.4" height="42.0" rx="12" fill="#FFFFFF" stroke="#FFFFFF" stroke-width="1.0" />
<text x="670.0" y="193.0" text-anchor="middle" font-size="13" font-family="Arial, Helvetica, sans-serif" font-weight="700" fill="#111111" >Analysis</text>
<rect x="809.2" y="166.0" width="218.4" height="358.0" rx="14" fill="#FFFFFF" stroke="#222222" stroke-width="1.3" stroke-dasharray="7 5" />
<rect x="809.2" y="166.0" width="218.4" height="42.0" rx="12" fill="#FFFFFF" stroke="#FFFFFF" stroke-width="1.0" />
<text x="918.4" y="193.0" text-anchor="middle" font-size="13" font-family="Arial, Helvetica, sans-serif" font-weight="700" fill="#111111" >Rendering</text>
<rect x="1057.6" y="166.0" width="218.4" height="358.0" rx="14" fill="#FFFFFF" stroke="#222222" stroke-width="1.3" stroke-dasharray="7 5" />
<rect x="1057.6" y="166.0" width="218.4" height="42.0" rx="12" fill="#FFFFFF" stroke="#FFFFFF" stroke-width="1.0" />
<text x="1166.8" y="193.0" text-anchor="middle" font-size="13" font-family="Arial, Helvetica, sans-serif" font-weight="700" fill="#111111" >Quality Gate</text>
<path d="M 261.4 257.0 C 297.4 257.0, 297.4 257.0, 333.4 257.0" fill="none" stroke="#111111" stroke-width="2.1" marker-end="url(#arrow)" opacity="0.72"/>
<rect x="266.4" y="237.0" width="62.0" height="19.0" rx="9" fill="#FFFFFF" stroke="#E7ECF2" stroke-width="0.8" />
<text x="297.4" y="251.0" text-anchor="middle" font-size="9" font-family="Arial, Helvetica, sans-serif" font-weight="600" fill="#555555" >uploads</text>
<path d="M 509.8 257.0 C 421.6 257.0, 421.6 335.0, 333.4 335.0" fill="none" stroke="#111111" stroke-width="2.1" marker-end="url(#arrow)" opacity="0.72"/>
<rect x="390.6" y="276.0" width="62.0" height="19.0" rx="9" fill="#FFFFFF" stroke="#E7ECF2" stroke-width="0.8" />
<text x="421.6" y="290.0" text-anchor="middle" font-size="9" font-family="Arial, Helvetica, sans-serif" font-weight="600" fill="#555555" >normalizes</text>
<path d="M 509.8 335.0 C 545.8 335.0, 545.8 257.0, 581.8 257.0" fill="none" stroke="#111111" stroke-width="2.1" marker-end="url(#arrow)" opacity="0.72"/>
<rect x="514.8" y="276.0" width="62.0" height="19.0" rx="9" fill="#FFFFFF" stroke="#E7ECF2" stroke-width="0.8" />
<text x="545.8" y="290.0" text-anchor="middle" font-size="9" font-family="Arial, Helvetica, sans-serif" font-weight="600" fill="#555555" >feeds</text>
<path d="M 758.2 257.0 C 670.0 257.0, 670.0 335.0, 581.8 335.0" fill="none" stroke="#111111" stroke-width="2.1" marker-end="url(#arrow)" opacity="0.72"/>
<rect x="639.0" y="276.0" width="62.0" height="19.0" rx="9" fill="#FFFFFF" stroke="#E7ECF2" stroke-width="0.8" />
<text x="670.0" y="290.0" text-anchor="middle" font-size="9" font-family="Arial, Helvetica, sans-serif" font-weight="600" fill="#555555" >links</text>
<path d="M 758.2 335.0 C 794.2 335.0, 794.2 257.0, 830.2 257.0" fill="none" stroke="#111111" stroke-width="2.1" marker-end="url(#arrow)" opacity="0.72"/>
<rect x="763.2" y="276.0" width="62.0" height="19.0" rx="9" fill="#FFFFFF" stroke="#E7ECF2" stroke-width="0.8" />
<text x="794.2" y="290.0" text-anchor="middle" font-size="9" font-family="Arial, Helvetica, sans-serif" font-weight="600" fill="#555555" >annotates</text>
<path d="M 1006.6 257.0 C 918.4 257.0, 918.4 335.0, 830.2 335.0" fill="none" stroke="#111111" stroke-width="2.1" marker-end="url(#arrow)" opacity="0.72"/>
<rect x="887.4" y="276.0" width="62.0" height="19.0" rx="9" fill="#FFFFFF" stroke="#E7ECF2" stroke-width="0.8" />
<text x="918.4" y="290.0" text-anchor="middle" font-size="9" font-family="Arial, Helvetica, sans-serif" font-weight="600" fill="#555555" >records</text>
<path d="M 1006.6 335.0 C 1042.6 335.0, 1042.6 257.0, 1078.6 257.0" fill="none" stroke="#111111" stroke-width="2.1" marker-end="url(#arrow)" opacity="0.72"/>
<rect x="1011.6" y="276.0" width="62.0" height="19.0" rx="9" fill="#FFFFFF" stroke="#E7ECF2" stroke-width="0.8" />
<text x="1042.6" y="290.0" text-anchor="middle" font-size="9" font-family="Arial, Helvetica, sans-serif" font-weight="600" fill="#555555" >checks</text>
<path d="M 1255.0 257.0 C 1166.8 257.0, 1166.8 335.0, 1078.6 335.0" fill="none" stroke="#111111" stroke-width="2.1" marker-end="url(#arrow)" opacity="0.72"/>
<rect x="1135.8" y="276.0" width="62.0" height="19.0" rx="9" fill="#FFFFFF" stroke="#E7ECF2" stroke-width="0.8" />
<text x="1166.8" y="290.0" text-anchor="middle" font-size="9" font-family="Arial, Helvetica, sans-serif" font-weight="600" fill="#555555" >releases</text>
<g class="node" data-node="inputs_files" style="cursor:pointer">
<rect x="85.0" y="226.0" width="176.4" height="62.0" rx="10" fill="#FFFFFF" stroke="#222222" stroke-width="1.45" filter="url(#softShadow)"/>
<circle cx="99.0" cy="240.0" r="4.2" fill="#666666" opacity="0.86"/>
<text x="173.2" y="261.0" text-anchor="middle" font-size="12" font-family="Arial, Helvetica, sans-serif" font-weight="600" fill="#111111" >Receive user files</text>
</g>
<g class="node" data-node="ingestion_service" style="cursor:pointer">
<rect x="333.4" y="226.0" width="176.4" height="62.0" rx="10" fill="#FFFFFF" stroke="#222222" stroke-width="1.45" filter="url(#softShadow)"/>
<circle cx="347.4" cy="240.0" r="4.2" fill="#666666" opacity="0.86"/>
<text x="421.6" y="254.0" text-anchor="middle" font-size="12" font-family="Arial, Helvetica, sans-serif" font-weight="600" fill="#111111" >Run ingestion</text>
<text x="421.6" y="269.0" text-anchor="middle" font-size="12" font-family="Arial, Helvetica, sans-serif" font-weight="600" fill="#111111" >service</text>
</g>
<g class="node" data-node="ingestion_store" style="cursor:pointer">
<rect x="333.4" y="304.0" width="176.4" height="62.0" rx="10" fill="#FFFFFF" stroke="#222222" stroke-width="1.45" filter="url(#softShadow)"/>
<circle cx="347.4" cy="318.0" r="4.2" fill="#666666" opacity="0.86"/>
<text x="421.6" y="339.0" text-anchor="middle" font-size="12" font-family="Arial, Helvetica, sans-serif" font-weight="600" fill="#111111" >Normalize data store</text>
</g>
<g class="node" data-node="analysis_engine" style="cursor:pointer">
<rect x="581.8" y="226.0" width="176.4" height="62.0" rx="10" fill="#FFFFFF" stroke="#222222" stroke-width="1.45" filter="url(#softShadow)"/>
<circle cx="595.8" cy="240.0" r="4.2" fill="#666666" opacity="0.86"/>
<text x="670.0" y="261.0" text-anchor="middle" font-size="12" font-family="Arial, Helvetica, sans-serif" font-weight="600" fill="#111111" >Run analysis engine</text>
</g>
<g class="node" data-node="analysis_provenance" style="cursor:pointer">
<rect x="581.8" y="304.0" width="176.4" height="62.0" rx="10" fill="#FFFFFF" stroke="#222222" stroke-width="1.45" filter="url(#softShadow)"/>
<circle cx="595.8" cy="318.0" r="4.2" fill="#666666" opacity="0.86"/>
<text x="670.0" y="339.0" text-anchor="middle" font-size="12" font-family="Arial, Helvetica, sans-serif" font-weight="600" fill="#111111" >Track provenance</text>
</g>
<g class="node" data-node="render_reports" style="cursor:pointer">
<rect x="830.2" y="226.0" width="176.4" height="62.0" rx="10" fill="#FFFFFF" stroke="#222222" stroke-width="1.45" filter="url(#softShadow)"/>
<circle cx="844.2" cy="240.0" r="4.2" fill="#666666" opacity="0.86"/>
<text x="918.4" y="261.0" text-anchor="middle" font-size="12" font-family="Arial, Helvetica, sans-serif" font-weight="600" fill="#111111" >Render reports</text>
</g>
<g class="node" data-node="render_registry" style="cursor:pointer">
<rect x="830.2" y="304.0" width="176.4" height="62.0" rx="10" fill="#FFFFFF" stroke="#222222" stroke-width="1.45" filter="url(#softShadow)"/>
<circle cx="844.2" cy="318.0" r="4.2" fill="#666666" opacity="0.86"/>
<text x="918.4" y="339.0" text-anchor="middle" font-size="12" font-family="Arial, Helvetica, sans-serif" font-weight="600" fill="#111111" >Register artifacts</text>
</g>
<g class="node" data-node="quality_rules" style="cursor:pointer">
<rect x="1078.6" y="226.0" width="176.4" height="62.0" rx="10" fill="#FFFFFF" stroke="#222222" stroke-width="1.45" filter="url(#softShadow)"/>
<circle cx="1092.6" cy="240.0" r="4.2" fill="#666666" opacity="0.86"/>
<text x="1166.8" y="254.0" text-anchor="middle" font-size="12" font-family="Arial, Helvetica, sans-serif" font-weight="600" fill="#111111" >Apply validation</text>
<text x="1166.8" y="269.0" text-anchor="middle" font-size="12" font-family="Arial, Helvetica, sans-serif" font-weight="600" fill="#111111" >rules</text>
</g>
<g class="node" data-node="quality_ci" style="cursor:pointer">
<rect x="1078.6" y="304.0" width="176.4" height="62.0" rx="10" fill="#FFFFFF" stroke="#222222" stroke-width="1.45" filter="url(#softShadow)"/>
<circle cx="1092.6" cy="318.0" r="4.2" fill="#666666" opacity="0.86"/>
<text x="1166.8" y="339.0" text-anchor="middle" font-size="12" font-family="Arial, Helvetica, sans-serif" font-weight="600" fill="#111111" >Publish through CI</text>
</g>
</svg>