<svg xmlns="http://www.w3.org/2000/svg" width="1360" height="690" viewBox="0 0 1360 690">
<defs>
<marker id="arrow" viewBox="0 0 10 10" refX="9" refY="5" markerWidth="8" markerHeight="8" orient="auto-start-reverse"><path d="M 0 0 L 10 5 L 0 10 z" fill="#E11D48"/></marker>
<filter id="softShadow" x="-20%" y="-20%" width="140%" height="140%"><feDropShadow dx="0" dy="2" stdDeviation="2" flood-color="#CBD5E1" flood-opacity="0.32"/></filter>
</defs>
<rect width="100%" height="100%" fill="#FFFFFF"/>
<rect x="10.0" y="10.0" width="1340.0" height="670.0" rx="18" fill="none" stroke="#D8E1EA" stroke-width="1.0" />
<rect x="64.0" y="22.0" width="1232.0" height="58.0" rx="18" fill="#FFE4E6" stroke="none" stroke-width="1.5" />
<text x="680.0" y="58.0" text-anchor="middle" font-size="24" font-family="Arial, Helvetica, sans-serif" font-weight="700" fill="#111827" >Research Tool Launch Campaign Strategy Route</text>
<text x="680.0" y="92.0" text-anchor="middle" font-size="12" font-family="Arial, Helvetica, sans-serif" font-weight="400" fill="#5B6472" >Campaign route generated by tech-route-maker</text>
<rect x="60.0" y="176.0" width="188.3" height="390.0" rx="12" fill="#FFE4E6" stroke="#FDA4AF" stroke-width="1.3" opacity="0.88"/>
<rect x="60.0" y="176.0" width="188.3" height="48.0" rx="12" fill="#E11D48" stroke="#E11D48" stroke-width="1.0" />
<text x="154.2" y="207.0" text-anchor="middle" font-size="13" font-family="Arial, Helvetica, sans-serif" font-weight="700" fill="#FFFFFF" >Audience</text>
<rect x="270.3" y="176.0" width="188.3" height="390.0" rx="12" fill="#FEF3C7" stroke="#FDA4AF" stroke-width="1.3" opacity="0.88"/>
<rect x="270.3" y="176.0" width="188.3" height="48.0" rx="12" fill="#E11D48" stroke="#E11D48" stroke-width="1.0" />
<text x="364.5" y="207.0" text-anchor="middle" font-size="13" font-family="Arial, Helvetica, sans-serif" font-weight="700" fill="#FFFFFF" >Insight</text>
<rect x="480.7" y="176.0" width="188.3" height="390.0" rx="12" fill="#DBEAFE" stroke="#FDA4AF" stroke-width="1.3" opacity="0.88"/>
<rect x="480.7" y="176.0" width="188.3" height="48.0" rx="12" fill="#E11D48" stroke="#E11D48" stroke-width="1.0" />
<text x="574.8" y="207.0" text-anchor="middle" font-size="13" font-family="Arial, Helvetica, sans-serif" font-weight="700" fill="#FFFFFF" >Message</text>
<rect x="691.0" y="176.0" width="188.3" height="390.0" rx="12" fill="#DCFCE7" stroke="#FDA4AF" stroke-width="1.3" opacity="0.88"/>
<rect x="691.0" y="176.0" width="188.3" height="48.0" rx="12" fill="#E11D48" stroke="#E11D48" stroke-width="1.0" />
<text x="785.2" y="207.0" text-anchor="middle" font-size="13" font-family="Arial, Helvetica, sans-serif" font-weight="700" fill="#FFFFFF" >Channels</text>
<rect x="901.3" y="176.0" width="188.3" height="390.0" rx="12" fill="#FCE7F3" stroke="#FDA4AF" stroke-width="1.3" opacity="0.88"/>
<rect x="901.3" y="176.0" width="188.3" height="48.0" rx="12" fill="#E11D48" stroke="#E11D48" stroke-width="1.0" />
<text x="995.5" y="207.0" text-anchor="middle" font-size="13" font-family="Arial, Helvetica, sans-serif" font-weight="700" fill="#FFFFFF" >Measurement</text>
<rect x="1111.7" y="176.0" width="188.3" height="390.0" rx="12" fill="#E0F2FE" stroke="#FDA4AF" stroke-width="1.3" opacity="0.88"/>
<rect x="1111.7" y="176.0" width="188.3" height="48.0" rx="12" fill="#E11D48" stroke="#E11D48" stroke-width="1.0" />
<text x="1205.8" y="207.0" text-anchor="middle" font-size="13" font-family="Arial, Helvetica, sans-serif" font-weight="700" fill="#FFFFFF" >Optimization</text>
<path d="M 231.3 275.0 C 154.2 275.0, 154.2 353.0, 77.0 353.0" fill="none" stroke="#E11D48" stroke-width="2.1" marker-end="url(#arrow)" opacity="0.72"/>
<rect x="123.2" y="294.0" width="62.0" height="19.0" rx="9" fill="#FFFFFF" stroke="#E7ECF2" stroke-width="0.8" />
<text x="154.2" y="308.0" text-anchor="middle" font-size="9" font-family="Arial, Helvetica, sans-serif" font-weight="600" fill="#5B6472" >segments</text>
<path d="M 231.3 353.0 C 259.3 353.0, 259.3 275.0, 287.3 275.0" fill="none" stroke="#E11D48" stroke-width="2.1" marker-end="url(#arrow)" opacity="0.72" stroke-dasharray="6 5"/>
<rect x="228.3" y="294.0" width="62.0" height="19.0" rx="9" fill="#FFFFFF" stroke="#E7ECF2" stroke-width="0.8" />
<text x="259.3" y="308.0" text-anchor="middle" font-size="9" font-family="Arial, Helvetica, sans-serif" font-weight="600" fill="#5B6472" >reveals</text>
<path d="M 441.7 275.0 C 364.5 275.0, 364.5 353.0, 287.3 353.0" fill="none" stroke="#E11D48" stroke-width="2.1" marker-end="url(#arrow)" opacity="0.72"/>
<rect x="333.5" y="294.0" width="62.0" height="19.0" rx="9" fill="#FFFFFF" stroke="#E7ECF2" stroke-width="0.8" />
<text x="364.5" y="308.0" text-anchor="middle" font-size="9" font-family="Arial, Helvetica, sans-serif" font-weight="600" fill="#5B6472" >frames</text>
<path d="M 441.7 353.0 C 469.7 353.0, 469.7 275.0, 497.7 275.0" fill="none" stroke="#E11D48" stroke-width="2.1" marker-end="url(#arrow)" opacity="0.72" stroke-dasharray="6 5"/>
<rect x="438.7" y="294.0" width="62.0" height="19.0" rx="9" fill="#FFFFFF" stroke="#E7ECF2" stroke-width="0.8" />
<text x="469.7" y="308.0" text-anchor="middle" font-size="9" font-family="Arial, Helvetica, sans-serif" font-weight="600" fill="#5B6472" >shapes</text>
<path d="M 652.0 275.0 C 574.8 275.0, 574.8 353.0, 497.7 353.0" fill="none" stroke="#E11D48" stroke-width="2.1" marker-end="url(#arrow)" opacity="0.72"/>
<rect x="543.8" y="294.0" width="62.0" height="19.0" rx="9" fill="#FFFFFF" stroke="#E7ECF2" stroke-width="0.8" />
<text x="574.8" y="308.0" text-anchor="middle" font-size="9" font-family="Arial, Helvetica, sans-serif" font-weight="600" fill="#5B6472" >proves</text>
<path d="M 652.0 353.0 C 680.0 353.0, 680.0 275.0, 708.0 275.0" fill="none" stroke="#E11D48" stroke-width="2.1" marker-end="url(#arrow)" opacity="0.72" stroke-dasharray="6 5"/>
<rect x="649.0" y="294.0" width="62.0" height="19.0" rx="9" fill="#FFFFFF" stroke="#E7ECF2" stroke-width="0.8" />
<text x="680.0" y="308.0" text-anchor="middle" font-size="9" font-family="Arial, Helvetica, sans-serif" font-weight="600" fill="#5B6472" >anchors</text>
<path d="M 862.3 275.0 C 785.2 275.0, 785.2 353.0, 708.0 353.0" fill="none" stroke="#E11D48" stroke-width="2.1" marker-end="url(#arrow)" opacity="0.72"/>
<rect x="754.2" y="294.0" width="62.0" height="19.0" rx="9" fill="#FFFFFF" stroke="#E7ECF2" stroke-width="0.8" />
<text x="785.2" y="308.0" text-anchor="middle" font-size="9" font-family="Arial, Helvetica, sans-serif" font-weight="600" fill="#5B6472" >extends</text>
<path d="M 862.3 353.0 C 890.3 353.0, 890.3 275.0, 918.3 275.0" fill="none" stroke="#E11D48" stroke-width="2.1" marker-end="url(#arrow)" opacity="0.72" stroke-dasharray="6 5"/>
<rect x="859.3" y="294.0" width="62.0" height="19.0" rx="9" fill="#FFFFFF" stroke="#E7ECF2" stroke-width="0.8" />
<text x="890.3" y="308.0" text-anchor="middle" font-size="9" font-family="Arial, Helvetica, sans-serif" font-weight="600" fill="#5B6472" >drives</text>
<path d="M 1072.7 275.0 C 995.5 275.0, 995.5 353.0, 918.3 353.0" fill="none" stroke="#E11D48" stroke-width="2.1" marker-end="url(#arrow)" opacity="0.72"/>
<rect x="964.5" y="294.0" width="62.0" height="19.0" rx="9" fill="#FFFFFF" stroke="#E7ECF2" stroke-width="0.8" />
<text x="995.5" y="308.0" text-anchor="middle" font-size="9" font-family="Arial, Helvetica, sans-serif" font-weight="600" fill="#5B6472" >learns</text>
<path d="M 1072.7 353.0 C 1100.7 353.0, 1100.7 275.0, 1128.7 275.0" fill="none" stroke="#E11D48" stroke-width="2.1" marker-end="url(#arrow)" opacity="0.72" stroke-dasharray="6 5"/>
<rect x="1069.7" y="294.0" width="62.0" height="19.0" rx="9" fill="#FFFFFF" stroke="#E7ECF2" stroke-width="0.8" />
<text x="1100.7" y="308.0" text-anchor="middle" font-size="9" font-family="Arial, Helvetica, sans-serif" font-weight="600" fill="#5B6472" >optimizes</text>
<path d="M 1205.8 244.0 C 1205.8 182.0, 574.8 182.0, 574.8 244.0" fill="none" stroke="#E11D48" stroke-width="2.1" marker-end="url(#arrow)" opacity="0.72" stroke-dasharray="6 5"/>
<rect x="859.3" y="255.0" width="62.0" height="19.0" rx="9" fill="#FFFFFF" stroke="#E7ECF2" stroke-width="0.8" />
<text x="890.3" y="269.0" text-anchor="middle" font-size="9" font-family="Arial, Helvetica, sans-serif" font-weight="600" fill="#5B6472" >iterates</text>
<g class="node" data-node="audience_segments" style="cursor:pointer">
<rect x="77.0" y="244.0" width="154.3" height="62.0" rx="10" fill="#FFFFFF" stroke="#FB7185" stroke-width="1.45" filter="url(#softShadow)"/>
<circle cx="91.0" cy="258.0" r="4.2" fill="#0F766E" opacity="0.86"/>
<text x="154.2" y="279.0" text-anchor="middle" font-size="12" font-family="Arial, Helvetica, sans-serif" font-weight="600" fill="#111827" >Map user segments</text>
</g>
<g class="node" data-node="audience_jobs" style="cursor:pointer">
<rect x="77.0" y="322.0" width="154.3" height="62.0" rx="10" fill="#FFFFFF" stroke="#FB7185" stroke-width="1.45" filter="url(#softShadow)"/>
<circle cx="91.0" cy="336.0" r="4.2" fill="#0F766E" opacity="0.86"/>
<text x="154.2" y="350.0" text-anchor="middle" font-size="12" font-family="Arial, Helvetica, sans-serif" font-weight="600" fill="#111827" >Clarify workflow</text>
<text x="154.2" y="365.0" text-anchor="middle" font-size="12" font-family="Arial, Helvetica, sans-serif" font-weight="600" fill="#111827" >jobs</text>
</g>
<g class="node" data-node="insight_editable" style="cursor:pointer">
<rect x="287.3" y="244.0" width="154.3" height="62.0" rx="10" fill="#FFFFFF" stroke="#FB7185" stroke-width="1.45" filter="url(#softShadow)"/>
<circle cx="301.3" cy="258.0" r="4.2" fill="#0F766E" opacity="0.86"/>
<text x="364.5" y="272.0" text-anchor="middle" font-size="12" font-family="Arial, Helvetica, sans-serif" font-weight="600" fill="#111827" >Lead with</text>
<text x="364.5" y="287.0" text-anchor="middle" font-size="12" font-family="Arial, Helvetica, sans-serif" font-weight="600" fill="#111827" >editability</text>
</g>
<g class="node" data-node="insight_friction" style="cursor:pointer">
<rect x="287.3" y="322.0" width="154.3" height="62.0" rx="10" fill="#FFFFFF" stroke="#FB7185" stroke-width="1.45" filter="url(#softShadow)"/>
<circle cx="301.3" cy="336.0" r="4.2" fill="#0F766E" opacity="0.86"/>
<text x="364.5" y="350.0" text-anchor="middle" font-size="12" font-family="Arial, Helvetica, sans-serif" font-weight="600" fill="#111827" >Remove drawing</text>
<text x="364.5" y="365.0" text-anchor="middle" font-size="12" font-family="Arial, Helvetica, sans-serif" font-weight="600" fill="#111827" >friction</text>
</g>
<g class="node" data-node="message_positioning" style="cursor:pointer">
<rect x="497.7" y="244.0" width="154.3" height="62.0" rx="10" fill="#FFFFFF" stroke="#FB7185" stroke-width="1.45" filter="url(#softShadow)"/>
<circle cx="511.7" cy="258.0" r="4.2" fill="#0F766E" opacity="0.86"/>
<text x="574.8" y="272.0" text-anchor="middle" font-size="12" font-family="Arial, Helvetica, sans-serif" font-weight="600" fill="#111827" >Position workflow</text>
<text x="574.8" y="287.0" text-anchor="middle" font-size="12" font-family="Arial, Helvetica, sans-serif" font-weight="600" fill="#111827" >value</text>
</g>
<g class="node" data-node="message_proof" style="cursor:pointer">
<rect x="497.7" y="322.0" width="154.3" height="62.0" rx="10" fill="#FFFFFF" stroke="#FB7185" stroke-width="1.45" filter="url(#softShadow)"/>
<circle cx="511.7" cy="336.0" r="4.2" fill="#0F766E" opacity="0.86"/>
<text x="574.8" y="350.0" text-anchor="middle" font-size="12" font-family="Arial, Helvetica, sans-serif" font-weight="600" fill="#111827" >Show before and</text>
<text x="574.8" y="365.0" text-anchor="middle" font-size="12" font-family="Arial, Helvetica, sans-serif" font-weight="600" fill="#111827" >after</text>
</g>
<g class="node" data-node="channels_github" style="cursor:pointer">
<rect x="708.0" y="244.0" width="154.3" height="62.0" rx="10" fill="#FFFFFF" stroke="#FB7185" stroke-width="1.45" filter="url(#softShadow)"/>
<circle cx="722.0" cy="258.0" r="4.2" fill="#0F766E" opacity="0.86"/>
<text x="785.2" y="279.0" text-anchor="middle" font-size="12" font-family="Arial, Helvetica, sans-serif" font-weight="600" fill="#111827" >Use GitHub as hub</text>
</g>
<g class="node" data-node="channels_content" style="cursor:pointer">
<rect x="708.0" y="322.0" width="154.3" height="62.0" rx="10" fill="#FFFFFF" stroke="#FB7185" stroke-width="1.45" filter="url(#softShadow)"/>
<circle cx="722.0" cy="336.0" r="4.2" fill="#0F766E" opacity="0.86"/>
<text x="785.2" y="350.0" text-anchor="middle" font-size="12" font-family="Arial, Helvetica, sans-serif" font-weight="600" fill="#111827" >Publish demo</text>
<text x="785.2" y="365.0" text-anchor="middle" font-size="12" font-family="Arial, Helvetica, sans-serif" font-weight="600" fill="#111827" >content</text>
</g>
<g class="node" data-node="measurement_metrics" style="cursor:pointer">
<rect x="918.3" y="244.0" width="154.3" height="62.0" rx="10" fill="#FFFFFF" stroke="#FB7185" stroke-width="1.45" filter="url(#softShadow)"/>
<circle cx="932.3" cy="258.0" r="4.2" fill="#0F766E" opacity="0.86"/>
<text x="995.5" y="272.0" text-anchor="middle" font-size="12" font-family="Arial, Helvetica, sans-serif" font-weight="600" fill="#111827" >Track adoption</text>
<text x="995.5" y="287.0" text-anchor="middle" font-size="12" font-family="Arial, Helvetica, sans-serif" font-weight="600" fill="#111827" >signals</text>
</g>
<g class="node" data-node="measurement_feedback" style="cursor:pointer">
<rect x="918.3" y="322.0" width="154.3" height="62.0" rx="10" fill="#FFFFFF" stroke="#FB7185" stroke-width="1.45" filter="url(#softShadow)"/>
<circle cx="932.3" cy="336.0" r="4.2" fill="#0F766E" opacity="0.86"/>
<text x="995.5" y="350.0" text-anchor="middle" font-size="12" font-family="Arial, Helvetica, sans-serif" font-weight="600" fill="#111827" >Collect quality</text>
<text x="995.5" y="365.0" text-anchor="middle" font-size="12" font-family="Arial, Helvetica, sans-serif" font-weight="600" fill="#111827" >feedback</text>
</g>
<g class="node" data-node="optimization_route" style="cursor:pointer">
<rect x="1128.7" y="244.0" width="154.3" height="62.0" rx="10" fill="#FFFFFF" stroke="#FB7185" stroke-width="1.45" filter="url(#softShadow)"/>
<circle cx="1142.7" cy="258.0" r="4.2" fill="#0F766E" opacity="0.86"/>
<text x="1205.8" y="272.0" text-anchor="middle" font-size="12" font-family="Arial, Helvetica, sans-serif" font-weight="600" fill="#111827" >Optimize message</text>
<text x="1205.8" y="287.0" text-anchor="middle" font-size="12" font-family="Arial, Helvetica, sans-serif" font-weight="600" fill="#111827" >route</text>
</g>
</svg>