<svg xmlns="http://www.w3.org/2000/svg" width="1320" height="854" viewBox="0 0 1320 854">
<defs>
<marker id="arrow" viewBox="0 0 10 10" refX="9" refY="5" markerWidth="8" markerHeight="8" orient="auto-start-reverse"><path d="M 0 0 L 10 5 L 0 10 z" fill="#38BDF8"/></marker>
<filter id="softShadow" x="-20%" y="-20%" width="140%" height="140%"><feDropShadow dx="0" dy="2" stdDeviation="2" flood-color="#CBD5E1" flood-opacity="0.32"/></filter>
</defs>
<rect width="100%" height="100%" fill="#0B1020"/>
<rect x="10.0" y="10.0" width="1300.0" height="834.0" rx="18" fill="none" stroke="#D8E1EA" stroke-width="1.0" />
<rect x="64.0" y="22.0" width="1192.0" height="58.0" rx="18" fill="#172554" stroke="none" stroke-width="1.5" />
<text x="660.0" y="58.0" text-anchor="middle" font-size="24" font-family="Arial, Helvetica, sans-serif" font-weight="700" fill="#E5E7EB" >Campus Integrated Energy System Technical Route</text>
<text x="660.0" y="92.0" text-anchor="middle" font-size="12" font-family="Arial, Helvetica, sans-serif" font-weight="400" fill="#AAB2C0" >Source-grid-load-storage engineering route generated by tech-route-maker</text>
<rect x="238.0" y="150.0" width="1008.0" height="114.0" rx="6" fill="#172554" stroke="#334155" stroke-width="1.4" opacity="0.78"/>
<rect x="58.0" y="150.0" width="146.0" height="114.0" rx="6" fill="#0F766E" stroke="#0F766E" stroke-width="1.0" />
<text x="131.0" y="202.9" text-anchor="middle" font-size="14" font-family="Arial, Helvetica, sans-serif" font-weight="700" fill="#FFFFFF" >System</text>
<text x="131.0" y="219.9" text-anchor="middle" font-size="14" font-family="Arial, Helvetica, sans-serif" font-weight="700" fill="#FFFFFF" >Boundary</text>
<rect x="238.0" y="282.0" width="1008.0" height="114.0" rx="6" fill="#164E63" stroke="#334155" stroke-width="1.4" opacity="0.78"/>
<rect x="58.0" y="282.0" width="146.0" height="114.0" rx="6" fill="#0F766E" stroke="#0F766E" stroke-width="1.0" />
<text x="131.0" y="334.9" text-anchor="middle" font-size="14" font-family="Arial, Helvetica, sans-serif" font-weight="700" fill="#FFFFFF" >Source</text>
<text x="131.0" y="351.9" text-anchor="middle" font-size="14" font-family="Arial, Helvetica, sans-serif" font-weight="700" fill="#FFFFFF" >Load Data</text>
<rect x="238.0" y="414.0" width="1008.0" height="114.0" rx="6" fill="#064E3B" stroke="#334155" stroke-width="1.4" opacity="0.78"/>
<rect x="58.0" y="414.0" width="146.0" height="114.0" rx="6" fill="#0F766E" stroke="#0F766E" stroke-width="1.0" />
<text x="131.0" y="458.8" text-anchor="middle" font-size="14" font-family="Arial, Helvetica, sans-serif" font-weight="700" fill="#FFFFFF" >Configura</text>
<text x="131.0" y="475.8" text-anchor="middle" font-size="14" font-family="Arial, Helvetica, sans-serif" font-weight="700" fill="#FFFFFF" >tion</text>
<text x="131.0" y="492.8" text-anchor="middle" font-size="14" font-family="Arial, Helvetica, sans-serif" font-weight="700" fill="#FFFFFF" >Model</text>
<rect x="238.0" y="546.0" width="1008.0" height="114.0" rx="6" fill="#3B0764" stroke="#334155" stroke-width="1.4" opacity="0.78"/>
<rect x="58.0" y="546.0" width="146.0" height="114.0" rx="6" fill="#0F766E" stroke="#0F766E" stroke-width="1.0" />
<text x="131.0" y="598.9" text-anchor="middle" font-size="14" font-family="Arial, Helvetica, sans-serif" font-weight="700" fill="#FFFFFF" >Operation</text>
<text x="131.0" y="615.9" text-anchor="middle" font-size="14" font-family="Arial, Helvetica, sans-serif" font-weight="700" fill="#FFFFFF" >Strategy</text>
<rect x="238.0" y="678.0" width="1008.0" height="114.0" rx="6" fill="#451A03" stroke="#334155" stroke-width="1.4" opacity="0.78"/>
<rect x="58.0" y="678.0" width="146.0" height="114.0" rx="6" fill="#0F766E" stroke="#0F766E" stroke-width="1.0" />
<text x="131.0" y="722.8" text-anchor="middle" font-size="14" font-family="Arial, Helvetica, sans-serif" font-weight="700" fill="#FFFFFF" >Validatio</text>
<text x="131.0" y="739.8" text-anchor="middle" font-size="14" font-family="Arial, Helvetica, sans-serif" font-weight="700" fill="#FFFFFF" >n</text>
<text x="131.0" y="756.8" text-anchor="middle" font-size="14" font-family="Arial, Helvetica, sans-serif" font-weight="700" fill="#FFFFFF" >Output</text>
<path d="M 733.0 207.0 C 742.0 207.0, 742.0 207.0, 751.0 207.0" fill="none" stroke="#38BDF8" stroke-width="2.1" marker-end="url(#arrow)" opacity="0.72"/>
<rect x="711.0" y="187.0" width="62.0" height="19.0" rx="9" fill="#FFFFFF" stroke="#E7ECF2" stroke-width="0.8" />
<text x="742.0" y="201.0" text-anchor="middle" font-size="9" font-family="Arial, Helvetica, sans-serif" font-weight="600" fill="#AAB2C0" >sets</text>
<path d="M 981.0 236.0 C 981.0 273.0, 423.3 273.0, 423.3 310.0" fill="none" stroke="#38BDF8" stroke-width="2.1" marker-end="url(#arrow)" opacity="0.72" stroke-dasharray="6 5"/>
<rect x="671.2" y="253.0" width="62.0" height="19.0" rx="9" fill="#FFFFFF" stroke="#E7ECF2" stroke-width="0.8" />
<text x="702.2" y="267.0" text-anchor="middle" font-size="9" font-family="Arial, Helvetica, sans-serif" font-weight="600" fill="#AAB2C0" >requires</text>
<path d="M 573.7 339.0 C 582.7 339.0, 582.7 339.0, 591.7 339.0" fill="none" stroke="#38BDF8" stroke-width="2.1" marker-end="url(#arrow)" opacity="0.72"/>
<rect x="551.7" y="319.0" width="62.0" height="19.0" rx="9" fill="#FFFFFF" stroke="#E7ECF2" stroke-width="0.8" />
<text x="582.7" y="333.0" text-anchor="middle" font-size="9" font-family="Arial, Helvetica, sans-serif" font-weight="600" fill="#AAB2C0" >combines</text>
<path d="M 892.3 339.0 C 901.3 339.0, 901.3 339.0, 910.3 339.0" fill="none" stroke="#38BDF8" stroke-width="2.1" marker-end="url(#arrow)" opacity="0.72"/>
<rect x="870.3" y="319.0" width="62.0" height="19.0" rx="9" fill="#FFFFFF" stroke="#E7ECF2" stroke-width="0.8" />
<text x="901.3" y="333.0" text-anchor="middle" font-size="9" font-family="Arial, Helvetica, sans-serif" font-weight="600" fill="#AAB2C0" >constrains</text>
<path d="M 1060.7 368.0 C 1060.7 405.0, 423.3 405.0, 423.3 442.0" fill="none" stroke="#38BDF8" stroke-width="2.1" marker-end="url(#arrow)" opacity="0.72" stroke-dasharray="6 5"/>
<rect x="711.0" y="385.0" width="62.0" height="19.0" rx="9" fill="#FFFFFF" stroke="#E7ECF2" stroke-width="0.8" />
<text x="742.0" y="399.0" text-anchor="middle" font-size="9" font-family="Arial, Helvetica, sans-serif" font-weight="600" fill="#AAB2C0" >feeds</text>
<path d="M 573.7 471.0 C 582.7 471.0, 582.7 471.0, 591.7 471.0" fill="none" stroke="#38BDF8" stroke-width="2.1" marker-end="url(#arrow)" opacity="0.72"/>
<rect x="551.7" y="451.0" width="62.0" height="19.0" rx="9" fill="#FFFFFF" stroke="#E7ECF2" stroke-width="0.8" />
<text x="582.7" y="465.0" text-anchor="middle" font-size="9" font-family="Arial, Helvetica, sans-serif" font-weight="600" fill="#AAB2C0" >optimizes</text>
<path d="M 892.3 471.0 C 901.3 471.0, 901.3 471.0, 910.3 471.0" fill="none" stroke="#38BDF8" stroke-width="2.1" marker-end="url(#arrow)" opacity="0.72"/>
<rect x="870.3" y="451.0" width="62.0" height="19.0" rx="9" fill="#FFFFFF" stroke="#E7ECF2" stroke-width="0.8" />
<text x="901.3" y="465.0" text-anchor="middle" font-size="9" font-family="Arial, Helvetica, sans-serif" font-weight="600" fill="#AAB2C0" >compares</text>
<path d="M 1060.7 500.0 C 1060.7 537.0, 503.0 537.0, 503.0 574.0" fill="none" stroke="#38BDF8" stroke-width="2.1" marker-end="url(#arrow)" opacity="0.72" stroke-dasharray="6 5"/>
<rect x="750.8" y="517.0" width="62.0" height="19.0" rx="9" fill="#FFFFFF" stroke="#E7ECF2" stroke-width="0.8" />
<text x="781.8" y="531.0" text-anchor="middle" font-size="9" font-family="Arial, Helvetica, sans-serif" font-weight="600" fill="#AAB2C0" >selects</text>
<path d="M 733.0 603.0 C 742.0 603.0, 742.0 603.0, 751.0 603.0" fill="none" stroke="#38BDF8" stroke-width="2.1" marker-end="url(#arrow)" opacity="0.72"/>
<rect x="711.0" y="583.0" width="62.0" height="19.0" rx="9" fill="#FFFFFF" stroke="#E7ECF2" stroke-width="0.8" />
<text x="742.0" y="597.0" text-anchor="middle" font-size="9" font-family="Arial, Helvetica, sans-serif" font-weight="600" fill="#AAB2C0" >organizes</text>
<path d="M 981.0 632.0 C 981.0 669.0, 423.3 669.0, 423.3 706.0" fill="none" stroke="#38BDF8" stroke-width="2.1" marker-end="url(#arrow)" opacity="0.72" stroke-dasharray="6 5"/>
<rect x="671.2" y="649.0" width="62.0" height="19.0" rx="9" fill="#FFFFFF" stroke="#E7ECF2" stroke-width="0.8" />
<text x="702.2" y="663.0" text-anchor="middle" font-size="9" font-family="Arial, Helvetica, sans-serif" font-weight="600" fill="#AAB2C0" >validates</text>
<path d="M 573.7 735.0 C 582.7 735.0, 582.7 735.0, 591.7 735.0" fill="none" stroke="#38BDF8" stroke-width="2.1" marker-end="url(#arrow)" opacity="0.72"/>
<rect x="551.7" y="715.0" width="62.0" height="19.0" rx="9" fill="#FFFFFF" stroke="#E7ECF2" stroke-width="0.8" />
<text x="582.7" y="729.0" text-anchor="middle" font-size="9" font-family="Arial, Helvetica, sans-serif" font-weight="600" fill="#AAB2C0" >stress tests</text>
<path d="M 892.3 735.0 C 901.3 735.0, 901.3 735.0, 910.3 735.0" fill="none" stroke="#38BDF8" stroke-width="2.1" marker-end="url(#arrow)" opacity="0.72"/>
<rect x="870.3" y="715.0" width="62.0" height="19.0" rx="9" fill="#FFFFFF" stroke="#E7ECF2" stroke-width="0.8" />
<text x="901.3" y="729.0" text-anchor="middle" font-size="9" font-family="Arial, Helvetica, sans-serif" font-weight="600" fill="#AAB2C0" >delivers</text>
<g class="node" data-node="boundary_scope" style="cursor:pointer">
<rect x="273.0" y="178.0" width="460.0" height="58.0" rx="10" fill="#111827" stroke="#38BDF8" stroke-width="1.45" filter="url(#softShadow)"/>
<circle cx="287.0" cy="192.0" r="4.2" fill="#0F766E" opacity="0.86"/>
<text x="503.0" y="211.0" text-anchor="middle" font-size="12" font-family="Arial, Helvetica, sans-serif" font-weight="600" fill="#E5E7EB" >Define campus boundary</text>
</g>
<g class="node" data-node="boundary_targets" style="cursor:pointer">
<rect x="751.0" y="178.0" width="460.0" height="58.0" rx="10" fill="#111827" stroke="#38BDF8" stroke-width="1.45" filter="url(#softShadow)"/>
<circle cx="765.0" cy="192.0" r="4.2" fill="#0F766E" opacity="0.86"/>
<text x="981.0" y="211.0" text-anchor="middle" font-size="12" font-family="Arial, Helvetica, sans-serif" font-weight="600" fill="#E5E7EB" >Set planning targets</text>
</g>
<g class="node" data-node="data_load" style="cursor:pointer">
<rect x="273.0" y="310.0" width="300.7" height="58.0" rx="10" fill="#111827" stroke="#38BDF8" stroke-width="1.45" filter="url(#softShadow)"/>
<circle cx="287.0" cy="324.0" r="4.2" fill="#0F766E" opacity="0.86"/>
<text x="423.3" y="343.0" text-anchor="middle" font-size="12" font-family="Arial, Helvetica, sans-serif" font-weight="600" fill="#E5E7EB" >Profile electric thermal load</text>
</g>
<g class="node" data-node="data_resource" style="cursor:pointer">
<rect x="591.7" y="310.0" width="300.7" height="58.0" rx="10" fill="#111827" stroke="#38BDF8" stroke-width="1.45" filter="url(#softShadow)"/>
<circle cx="605.7" cy="324.0" r="4.2" fill="#0F766E" opacity="0.86"/>
<text x="742.0" y="343.0" text-anchor="middle" font-size="12" font-family="Arial, Helvetica, sans-serif" font-weight="600" fill="#E5E7EB" >Assess renewable resources</text>
</g>
<g class="node" data-node="data_tariff" style="cursor:pointer">
<rect x="910.3" y="310.0" width="300.7" height="58.0" rx="10" fill="#111827" stroke="#38BDF8" stroke-width="1.45" filter="url(#softShadow)"/>
<circle cx="924.3" cy="324.0" r="4.2" fill="#0F766E" opacity="0.86"/>
<text x="1060.7" y="343.0" text-anchor="middle" font-size="12" font-family="Arial, Helvetica, sans-serif" font-weight="600" fill="#E5E7EB" >Collect tariff constraints</text>
</g>
<g class="node" data-node="model_assets" style="cursor:pointer">
<rect x="273.0" y="442.0" width="300.7" height="58.0" rx="10" fill="#111827" stroke="#38BDF8" stroke-width="1.45" filter="url(#softShadow)"/>
<circle cx="287.0" cy="456.0" r="4.2" fill="#0F766E" opacity="0.86"/>
<text x="423.3" y="475.0" text-anchor="middle" font-size="12" font-family="Arial, Helvetica, sans-serif" font-weight="600" fill="#E5E7EB" >Model candidate assets</text>
</g>
<g class="node" data-node="model_objective" style="cursor:pointer">
<rect x="591.7" y="442.0" width="300.7" height="58.0" rx="10" fill="#111827" stroke="#38BDF8" stroke-width="1.45" filter="url(#softShadow)"/>
<circle cx="605.7" cy="456.0" r="4.2" fill="#0F766E" opacity="0.86"/>
<text x="742.0" y="475.0" text-anchor="middle" font-size="12" font-family="Arial, Helvetica, sans-serif" font-weight="600" fill="#E5E7EB" >Optimize multi-objective sizing</text>
</g>
<g class="node" data-node="model_scenarios" style="cursor:pointer">
<rect x="910.3" y="442.0" width="300.7" height="58.0" rx="10" fill="#111827" stroke="#38BDF8" stroke-width="1.45" filter="url(#softShadow)"/>
<circle cx="924.3" cy="456.0" r="4.2" fill="#0F766E" opacity="0.86"/>
<text x="1060.7" y="475.0" text-anchor="middle" font-size="12" font-family="Arial, Helvetica, sans-serif" font-weight="600" fill="#E5E7EB" >Compare planning scenarios</text>
</g>
<g class="node" data-node="operation_dispatch" style="cursor:pointer">
<rect x="273.0" y="574.0" width="460.0" height="58.0" rx="10" fill="#111827" stroke="#38BDF8" stroke-width="1.45" filter="url(#softShadow)"/>
<circle cx="287.0" cy="588.0" r="4.2" fill="#0F766E" opacity="0.86"/>
<text x="503.0" y="607.0" text-anchor="middle" font-size="12" font-family="Arial, Helvetica, sans-serif" font-weight="600" fill="#E5E7EB" >Build dispatch strategy</text>
</g>
<g class="node" data-node="operation_control" style="cursor:pointer">
<rect x="751.0" y="574.0" width="460.0" height="58.0" rx="10" fill="#111827" stroke="#38BDF8" stroke-width="1.45" filter="url(#softShadow)"/>
<circle cx="765.0" cy="588.0" r="4.2" fill="#0F766E" opacity="0.86"/>
<text x="981.0" y="607.0" text-anchor="middle" font-size="12" font-family="Arial, Helvetica, sans-serif" font-weight="600" fill="#E5E7EB" >Define control hierarchy</text>
</g>
<g class="node" data-node="validation_kpi" style="cursor:pointer">
<rect x="273.0" y="706.0" width="300.7" height="58.0" rx="10" fill="#111827" stroke="#38BDF8" stroke-width="1.45" filter="url(#softShadow)"/>
<circle cx="287.0" cy="720.0" r="4.2" fill="#0F766E" opacity="0.86"/>
<text x="423.3" y="739.0" text-anchor="middle" font-size="12" font-family="Arial, Helvetica, sans-serif" font-weight="600" fill="#E5E7EB" >Evaluate system KPIs</text>
</g>
<g class="node" data-node="validation_sensitivity" style="cursor:pointer">
<rect x="591.7" y="706.0" width="300.7" height="58.0" rx="10" fill="#111827" stroke="#38BDF8" stroke-width="1.45" filter="url(#softShadow)"/>
<circle cx="605.7" cy="720.0" r="4.2" fill="#0F766E" opacity="0.86"/>
<text x="742.0" y="739.0" text-anchor="middle" font-size="12" font-family="Arial, Helvetica, sans-serif" font-weight="600" fill="#E5E7EB" >Run sensitivity checks</text>
</g>
<g class="node" data-node="validation_deliver" style="cursor:pointer">
<rect x="910.3" y="706.0" width="300.7" height="58.0" rx="10" fill="#111827" stroke="#38BDF8" stroke-width="1.45" filter="url(#softShadow)"/>
<circle cx="924.3" cy="720.0" r="4.2" fill="#0F766E" opacity="0.86"/>
<text x="1060.7" y="739.0" text-anchor="middle" font-size="12" font-family="Arial, Helvetica, sans-serif" font-weight="600" fill="#E5E7EB" >Deliver configuration plan</text>
</g>
</svg>